<?xml version="1.0" encoding="UTF-8" standalone="no"?><svg xmlns:svg="http://www.w3.org/2000/svg" xmlns="http://www.w3.org/2000/svg" x="0px" y="0px" width="580" height="580" viewBox="0 0 580 580" enable-background="new 0 0 580 580" xml:space="preserve" version="1.1"><path stroke-opacity="param(outline-opacity)" stroke="param(outline)" fill-opacity="param(fill-opacity)" fill="param(fill)" d="m 265.15432,0.001542 c -0.0571,-0.0023 -0.11698,-0.0023 -0.17968,0.0023 -0.16722,0.0087 -0.35466,0.03649 -0.56197,0.08343 l -2.34688,1.173438 -1.05609,1.760158 -0.70406,1.408126 c -0.34421,0.203403 -0.42244,0.672779 -0.23469,1.408125 0.12516,0.829222 -0.0313,1.376843 -0.46938,1.642814 l -1.29078,0.821407 -1.29078,1.760157 -0.23469,0.938751 c -0.34421,2.456405 -0.0313,4.255662 0.93875,5.397816 l -0.46937,1.877501 -1.40813,2.816252 -0.58672,0.352032 c -1.23602,1.032625 -2.13565,2.401629 -2.69891,4.107033 l -1.40812,3.050988 v 1.877501 l -0.23469,0.704063 0.23469,3.05094 0.70406,1.877501 c 0.31292,1.095217 0.86052,1.955723 1.64282,2.581564 l 1.05609,0.821407 0.35203,0.586719 3.05094,1.877501 3.98969,1.408126 5.98454,1.290782 c 1.09521,1.329905 1.68192,3.168284 1.76015,5.51516 l 0.23469,3.285627 v 7.744693 2.112189 l 0.23469,0.704063 -0.46938,0.704063 c -0.26597,0.985688 -0.18775,1.61153 0.23469,1.877501 -0.42244,0.281625 -0.50066,0.907467 -0.23469,1.877501 v 4.224378 1.877501 l -0.23468,0.704063 0.23468,0.704063 -0.23468,0.938751 v 2.346877 l -0.58672,4.576409 -0.35203,3.637659 -0.11735,2.229532 -0.23469,1.408126 c 0.0939,0.782285 -0.10169,1.290782 -0.58672,1.52547 l -1.17343,1.173438 c 0,1.095217 0.23468,1.955723 0.70406,2.581564 l 0.35203,0.117344 c -0.0157,1.345535 0.41462,2.245187 1.29078,2.698908 v 1.642816 l -0.23468,0.70406 0.23468,0.70406 v 1.64282 0.46937 c -0.28162,1.36119 -0.79011,2.49551 -1.52547,3.40297 -0.0157,1.07957 -0.4459,1.74451 -1.29078,1.99485 l 0.23469,1.8775 0.70406,1.40813 0.70406,1.40812 0.82141,0.35203 c 0.56325,0.76666 0.75882,1.90097 0.58672,3.40297 l 0.23469,3.75501 -0.35203,0.11734 -0.35203,1.05609 c -0.0626,0.8136 -0.3755,1.36119 -0.93876,1.64282 -0.18775,1.20472 -0.0704,2.10437 0.35204,2.69891 l 0.35203,1.05609 c 0.5476,0.5476 0.78229,1.40813 0.70406,2.58157 l 0.23469,4.45906 0.23469,8.91813 v 2.34688 l 0.23468,0.93875 -0.23468,0.93875 c 0.39114,0.5476 0.46937,1.40813 0.23468,2.58156 v 5.8672 2.34687 l 0.23469,0.93875 -0.23469,0.93875 0.23469,0.93875 v 6.33657 l -0.11734,1.99485 -0.35203,1.76015 -0.46938,1.64282 -2.81625,2.11219 -1.76016,0.8214 -1.64281,0.46938 -0.93875,0.46937 -2.11219,0.23469 h -0.46938 l -0.93875,0.23469 h -0.46937 l -5.63251,1.17344 -2.46422,0.58672 c -0.73535,0.51631 -1.71322,0.79012 -2.93359,0.8214 -1.39248,0.40679 -2.48769,1.11085 -3.28563,2.11219 l -0.70406,1.64281 -0.82141,2.46423 0.46938,3.98969 0.46937,1.64281 c 0.40679,0.45372 0.56325,1.15778 0.46938,2.11219 l 0.23468,1.40812 0.70407,1.40813 1.05609,1.05609 1.64282,0.23469 1.40812,0.23469 1.8775,0.93875 0.11735,0.35203 1.99484,1.52547 0.11734,0.58672 c 0.2034,0.59453 0.79012,0.79012 1.76016,0.58672 0.51632,0.26597 0.71189,0.85269 0.58672,1.76016 v 2.11219 c -0.25033,1.58022 -0.1721,2.8319 0.23469,3.755 l 0.70406,3.755 0.35203,0.11734 c 0.39115,0.15647 0.50849,0.58672 0.35204,1.29079 -0.18775,0.751 -0.10953,1.22037 0.23468,1.40812 l -0.23468,2.11219 -0.23469,0.93875 v 2.11219 l 0.23469,0.93875 c 0.28162,0.98569 0.20339,1.61152 -0.23469,1.8775 l 0.11734,3.87235 0.11735,2.22953 0.23468,0.93875 v 5.63251 1.40812 l -0.23468,0.70407 c 0.35985,1.04827 0.43808,2.37816 0.23468,3.98969 l 0.23469,7.51 0.35203,2.69891 0.11735,2.46422 0.23468,3.52031 v 4.45907 c -0.23468,0.86053 -0.15646,1.40812 0.23469,1.64281 l -0.23469,1.64282 v 2.58156 c 0.28163,0.98569 0.2034,1.61153 -0.23468,1.8775 l 0.23468,0.46938 c 0.17211,1.34553 0.0157,2.36253 -0.46937,3.05094 l 0.23469,2.58156 0.46937,3.05094 0.23469,1.17344 -0.46938,2.11219 0.46938,1.40812 v 5.39782 l -0.23469,2.58156 -1.05609,0.82141 c -1.1265,0.751 -1.63499,2.12 -1.52547,4.10703 v 4.92845 0.46937 l 1.05609,3.40297 c -0.0313,0.73535 0.2034,1.20472 0.70406,1.40813 l 0.46938,1.40812 0.58672,1.52547 0.70406,1.17344 0.93875,1.40813 0.23469,1.64281 c -0.26598,0.98569 -0.18775,1.61153 0.23469,1.8775 0.15646,0.93875 0,1.56459 -0.46938,1.8775 l -0.93875,4.45907 -0.82141,0.58672 -0.35203,0.58672 v 2.34687 l 0.23469,0.93875 c 0.28163,0.98569 0.2034,1.61153 -0.23469,1.87751 l 0.93875,4.92844 0.46938,1.8775 0.70406,2.11219 c 0.2034,0.751 0.12517,1.22037 -0.23469,1.40812 l 0.23469,2.11219 -0.8214,0.35203 -0.35204,0.82141 c -0.5476,1.01697 -1.52547,1.60369 -2.93359,1.76016 l -0.11735,1.52547 -0.23468,0.93875 0.11734,1.52547 0.46938,1.64281 1.05609,1.99485 1.29078,1.05609 2.22954,4.34172 v 1.40813 l -0.23469,0.70406 0.23469,0.70406 -0.23469,2.34688 -0.46938,1.17344 c 0.59454,0.50066 0.82923,1.36119 0.70407,2.58156 l -0.70407,0.46938 c -0.18775,0.751 -0.10952,1.22037 0.23469,1.40812 l -0.23469,0.46938 0.22965,0.68848 c -4e-5,0.002 -4.7e-4,0.004 -4.7e-4,0.007 -6e-5,0.008 5e-5,0.0169 0,0.0252 l -0.22918,0.68712 0.23102,0.69305 c 7e-5,0.0319 -2.1e-4,0.0639 0,0.0958 2e-5,0.005 -10e-6,0.01 0,0.0146 l -0.11367,3.06894 -0.11735,1.76015 -0.23469,0.93875 0.0756,3.94203 c -10e-4,0.0406 -9.3e-4,0.0812 0.002,0.12147 l 0.15671,8.14026 0.23469,7.27532 0.23469,3.755 c -0.18775,0.751 -0.10952,1.22038 0.23469,1.40813 l -0.23469,0.46937 c 0.35985,0.50066 0.43808,1.28297 0.23469,2.34688 l 0.23423,1.17069 c -2e-5,0.1112 -2.4e-4,0.22249 -4.7e-4,0.3337 0,0.16022 -7.1e-4,0.32012 4.7e-4,0.48036 1.1e-4,0.0923 2.3e-4,0.18458 4.6e-4,0.27686 v 2.90152 c 0.2034,0.751 0.12517,1.22037 -0.23468,1.40812 l 0.23468,0.46938 -0.23468,1.17344 0.23468,3.755 0.23469,5.16313 0.35203,8.5661 0.20306,3.72245 c -7e-4,0.15083 -0.002,0.3016 -9.4e-4,0.45243 0.003,0.3076 9.4e-4,0.61507 4.7e-4,0.9227 -0.002,0.24447 -0.002,0.48892 -10e-4,0.7334 0.004,0.23912 -0.0114,0.47909 0.0114,0.71734 0.0139,0.25126 0.074,0.49134 0.17144,0.72242 0.0152,0.0319 0.0341,0.0617 0.0504,0.093 l 0.15222,1.67168 0.23468,0.93875 -0.23468,0.93875 c -0.26921,1.68255 -0.13208,2.95869 0.40933,3.83065 0.0394,0.1448 0.0871,0.28782 0.13338,0.42994 0.11908,0.28743 0.18903,0.58754 0.22736,0.89522 0.002,0.0188 0.006,0.0372 0.009,0.0559 -0.0486,0.19491 -0.14983,0.33729 -0.30986,0.4208 l 0.23468,1.64281 0.35204,1.29078 1.05609,1.76016 0.46937,0.93875 0.23469,0.93875 0.23469,2.34688 v 2.11219 l 0.23469,0.93875 -0.11735,1.76015 -0.58672,1.76016 c -0.21904,1.15779 -0.0626,1.94009 0.46938,2.34688 0.43808,0.12516 0.59454,0.51631 0.46938,1.17344 -0.0939,0.71971 0.0626,1.18909 0.46937,1.40812 l -0.35203,0.11735 -0.11734,1.76015 -0.35204,0.11735 -0.35203,0.58672 0.23469,1.40812 0.46938,1.64282 -0.23469,1.40812 c 0.12516,0.82922 -0.0313,1.37684 -0.46938,1.64282 l 0.23469,2.11218 0.70406,2.81626 0.23469,0.70406 -0.70406,3.755 0.11734,1.29078 0.35203,1.52547 0.35203,0.82141 c 0.35986,0.12516 0.4772,0.47719 0.35204,1.0561 l 0.23468,1.8775 c -0.26597,1.75234 -0.10952,3.08222 0.46938,3.98969 0.50067,0.51631 0.65712,1.37684 0.46937,2.58156 l 0.11735,1.52547 0.35203,1.29078 -0.11734,1.76016 -0.58672,1.76016 v 2.11219 c -0.10953,0.67278 0.0469,1.06391 0.46937,1.17343 0.23469,0.86053 0.15646,1.40813 -0.23469,1.64282 l 0.70407,3.52031 v 0.46938 l -0.23469,0.46937 0.23469,1.17344 0.23468,2.11219 c -0.0939,0.95441 0.0626,1.65847 0.46938,2.11219 l 0.70406,1.40813 c 0.17211,1.11084 0.0548,1.93225 -0.35203,2.46422 l -0.58672,1.99484 -0.58672,1.29078 c -0.65712,0.43809 -0.85269,1.33772 -0.58672,2.69891 v 0.46938 l 0.23469,0.93875 -0.23469,0.46937 0.23469,2.11219 c 0.12517,2.23735 0.59454,4.11485 1.40813,5.63251 l -0.23469,2.58156 -0.23469,1.17344 0.23469,3.28563 0.70406,4.69375 1.29079,0.35203 1.29078,4.8111 c 0.53196,0.79793 0.68841,1.97137 0.46937,3.52031 l 0.23469,1.40813 0.35203,1.05609 0.35203,1.0561 0.93875,1.64281 1.0561,0.82141 0.11734,0.35203 1.76016,1.29078 c 0.71971,0.45372 1.11085,1.23603 1.17344,2.34688 l 1.05609,2.22953 -0.11734,1.29078 -0.35203,1.29078 0.70406,2.11219 1.29078,0.58672 0.82141,1.0561 1.52547,0.11734 1.76016,-2.69891 1.29078,-0.8214 1.05609,-2.9336 c 0.54761,-0.23469 0.62584,-0.46938 0.23469,-0.70406 l 0.35203,-0.11735 1.52547,-2.69891 0.58672,-0.8214 0.11734,-0.35203 -0.23468,-0.70407 c -0.2034,-1.29859 -0.0469,-2.23734 0.46937,-2.81625 l 1.99485,-1.05609 2.69891,-2.9336 -0.23469,-0.46937 c 0.59454,-0.50066 0.82923,-1.36119 0.70406,-2.58157 l 0.23469,-1.17344 v -2.81625 l -0.23469,-1.17344 0.46938,-3.52031 0.93875,-4.92844 c 0.28162,-1.1265 0.12516,-1.83057 -0.46938,-2.11219 -0.0939,-0.71972 0.0626,-1.18909 0.46938,-1.40813 l -0.23469,-2.34687 c 0.0939,-0.95441 -0.14081,-1.58023 -0.70406,-1.8775 l 0.23468,-0.93876 1.29079,-0.8214 c 0.48502,-0.21904 0.68059,-0.72753 0.58671,-1.52547 l 0.58672,-0.35203 1.40813,-1.40813 0.35203,-0.82141 0.23469,-0.93875 0.23469,-3.28562 v -0.46938 l 0.23468,-0.70406 -0.23468,-1.17344 -0.93875,-1.17344 -1.52547,-2.22953 c -0.56325,-0.29728 -0.83706,-0.884 -0.82141,-1.76016 l 3.16828,-1.76016 1.17344,-1.8775 c 0.53196,-0.56325 0.6493,-1.54112 0.35203,-2.93359 v -0.46938 l -0.35203,-1.52547 -0.11734,-2.69891 -0.82141,-0.58672 c -0.51631,-0.26597 -0.71188,-0.85269 -0.58672,-1.76015 l -0.23469,-0.93875 0.70407,-2.81626 v -0.46937 l 0.23468,-0.93875 v -2.34688 l 0.23469,-2.11219 0.23469,-1.17344 v -0.46937 l 1.05609,-3.16828 0.58672,-1.29079 v -0.46937 l -0.23468,-0.46938 0.23468,-0.93875 -0.46937,-1.17344 -0.82141,-0.35203 -0.58672,-1.29078 0.82141,-0.35203 c 0.751,-0.5789 1.18126,-1.47853 1.29078,-2.69891 -0.15646,-1.09522 0,-1.8775 0.46938,-2.34688 l -0.23469,-1.17343 0.46937,-4.69376 0.23469,-1.64281 v -2.58156 l 0.23469,-1.87751 0.23469,-2.11218 0.23468,-0.70407 -0.23468,-0.46937 0.23468,-0.46938 -0.23468,-1.64281 0.23468,-0.70406 -0.23468,-0.46938 v -0.46938 l 0.46937,-0.93875 -0.23469,-0.46937 0.46938,-5.16313 0.46938,-5.86719 0.35203,-1.76016 0.11734,-1.99484 0.23469,-2.58157 0.23469,-8.44875 0.23468,-1.40813 0.11735,-1.99484 0.11734,-2.69891 v -2.11219 l 0.23469,-0.70406 v -4.69376 c 0.23469,-0.86053 0.15646,-1.40812 -0.23469,-1.64281 l 0.23469,-1.40813 v -2.58156 l 0.11734,-2.69891 0.35203,-3.16828 v -0.46938 l -0.23468,-0.46937 0.23468,-0.70407 -0.11734,-6.68859 -0.11734,-1.52547 0.23468,-0.70407 v -1.40812 l -0.23468,-0.70407 0.23468,-3.52031 c -0.23468,-0.86053 -0.15646,-1.40813 0.23469,-1.64281 l -0.11734,-7.86204 -0.35203,-5.51516 v -0.46938 l 0.23468,-0.93875 v -1.8775 c -0.18775,-0.73534 -0.10952,-1.20472 0.23469,-1.40812 v -3.28563 l -0.23469,-1.17344 0.11735,-1.05609 0.11734,-3.63766 c -0.2034,-1.06391 -0.12516,-1.84622 0.23469,-2.34688 v -0.93875 -6.10188 l -0.23469,-2.81625 v -0.46938 -2.34687 l 0.23469,-0.93875 -0.11734,-4.10704 -0.11735,-1.05609 v -0.46938 l 0.23469,-0.46937 -0.23469,-0.70406 0.11735,-3.63766 0.11734,-1.52547 0.23469,-0.93875 -0.23469,-0.46938 0.23469,-0.46937 -0.23469,-0.46938 0.23469,-1.17344 v -2.34687 l 0.23468,-3.52032 0.23469,-1.17344 c 0.2034,-0.73534 0.12517,-1.20472 -0.23469,-1.40812 l 0.23469,-5.39782 v -1.40813 l 0.23469,-0.70406 -0.11734,-3.63766 -0.11735,-2.46422 -0.23469,-1.17344 v -2.58156 l 0.23469,-0.93875 -0.23469,-2.58156 c 0.12517,-0.90747 -0.0704,-1.49419 -0.58671,-1.76016 l -0.58672,-2.69891 0.23468,-2.11219 0.70407,-1.17344 1.17344,-2.81625 -0.70407,-2.58156 -0.23469,-3.28563 -0.23468,-3.98969 1.05609,-0.58672 c 0.35985,-0.26597 0.4772,-0.77447 0.35203,-1.52547 -0.0939,-0.71972 0.0626,-1.18909 0.46938,-1.40813 0.28162,-0.97003 0.20339,-1.59587 -0.23469,-1.8775 -0.10952,-0.65712 0.0469,-1.04828 0.46937,-1.17344 v -1.40812 l -0.23468,-0.70406 v -1.40813 l 0.23468,-0.70406 -0.23468,-1.64282 -0.93875,-3.755 0.46937,-1.17344 c 0.18775,-1.04828 0.0313,-1.75234 -0.46937,-2.11219 l 0.23468,-2.34687 v -0.46938 -3.05094 l 0.23469,-1.17344 -0.93875,-4.69375 -0.58672,-0.35203 -0.58672,-2.22953 c -0.31291,-1.95573 -0.15646,-3.4421 0.46938,-4.45907 l -0.23469,-1.64281 -0.23469,-0.70407 -1.40812,-2.58156 -0.0481,-0.0963 c -1e-5,-0.11504 10e-6,-0.23009 0,-0.34515 0,-0.44974 -2.1e-4,-0.89926 -9.4e-4,-1.34899 -7e-4,-0.49226 -0.002,-0.98463 -0.002,-1.47689 0.001,-0.47782 0.004,-0.95553 0.003,-1.43333 0,-0.51687 2.3e-4,-1.0338 -4.7e-4,-1.55067 -0.0106,-0.61627 -0.0349,-1.23254 -0.10405,-1.84542 -0.10052,-0.84399 -0.26936,-1.67542 -0.42491,-2.51053 -0.003,-0.0143 -0.005,-0.0284 -0.007,-0.0426 l -0.11912,-1.78858 c 0.0812,-0.64942 0.0763,-1.21274 -0.011,-1.69369 -9.4e-4,-0.40339 -0.003,-0.80684 -0.0133,-1.21011 -0.0172,-0.53432 -0.0363,-1.07371 -0.16776,-1.59468 -0.0229,-0.0862 -0.0442,-0.17282 -0.0674,-0.25898 l -0.20994,-2.51785 -0.23469,-0.93875 0.11734,-2.22954 0.35203,-2.6989 0.46938,-2.81626 0.46937,-1.40812 -0.23468,-2.58157 v -0.46937 l 0.23468,-2.11219 c 0.2034,-0.42244 0.39897,-0.46156 0.58672,-0.11734 0.26598,-0.4381 0.81359,-0.59454 1.64282,-0.46938 l 2.34687,-1.8775 0.35203,-0.58672 1.29079,-0.82141 1.8775,-0.93875 c 0.93874,-0.62584 1.29077,-1.83838 1.05609,-3.63766 -0.2034,-1.06391 -0.12517,-1.84621 0.23468,-2.34687 l 0.23469,-0.93875 c 0.42244,-0.51632 0.5789,-1.2986 0.46938,-2.34688 -0.18775,-0.73535 -0.10952,-1.20472 0.23469,-1.40813 l -0.46938,-1.8775 -0.93875,-2.58156 -2.11219,-3.05094 c -0.87616,-1.31425 -2.16694,-2.21388 -3.87234,-2.69891 l -2.34688,-0.46937 c -0.79794,-0.3755 -1.89315,-0.45373 -3.28562,-0.23469 l -4.45907,-0.23469 c -2.50334,0.0782 -4.45907,-0.39115 -5.86719,-1.40812 l -0.70406,-1.64282 -0.58672,-3.16828 -0.23469,-3.755 c 0.23469,-0.86053 0.15646,-1.40813 -0.23469,-1.64282 l 0.23469,-0.46937 -0.11734,-1.29079 -0.11735,-5.98453 v -2.11219 l -0.23469,-0.70406 0.23469,-0.93875 v -0.46938 -5.16313 c 0.28163,-0.97003 0.2034,-1.59587 -0.23469,-1.8775 l 0.23469,-0.93875 v -1.64281 c -0.18775,-0.73535 -0.10952,-1.20472 0.23469,-1.40813 v -5.16313 c 0.28162,-0.97003 0.2034,-1.59587 -0.23469,-1.8775 v -3.52031 l 0.23469,-1.8775 c 0.0156,-1.23603 0.40679,-2.09654 1.17344,-2.58157 l -0.23469,-1.40812 -0.35203,-1.0561 c -0.50067,-0.51631 -0.61801,-1.41594 -0.35203,-2.69891 l 0.70406,-0.46937 c -0.18775,-0.42244 -0.38332,-0.46156 -0.58672,-0.11735 -0.39115,-0.15646 -0.50849,-0.58672 -0.35203,-1.29078 l -0.46938,-4.22438 v -0.46937 c -0.10952,-0.65713 0.0469,-1.04828 0.46938,-1.17344 0.5476,-0.0782 0.78229,-0.46937 0.70406,-1.17344 l 1.0561,-0.58672 1.05609,-2.46422 c 0.12517,-0.82922 -0.0313,-1.37684 -0.46937,-1.64281 l -0.35204,-0.11734 c -0.61018,-0.40679 -0.96222,-1.07175 -1.05609,-1.99485 l -0.46938,-1.17344 -0.46937,-1.17344 -0.23469,-1.8775 v -0.46937 l -0.23469,-1.17344 0.23469,-0.93875 -0.23469,-0.938752 1.0561,-0.586719 0.58672,-0.821407 0.35203,-0.117344 1.05609,-1.760157 -0.23468,-0.704063 -0.70407,-0.938751 -1.17344,-2.346876 -0.8214,-0.586719 -0.23469,-2.112189 -0.11734,-2.464221 v -0.469375 l 0.23468,-0.469375 -0.46937,-1.642814 0.23469,-1.173438 v -0.469376 l -0.23469,-1.173438 0.23469,-0.469375 -0.23469,-0.469375 v -3.989691 l 0.23469,-1.877501 -0.23469,-0.704063 c -0.18775,-0.735347 -0.10952,-1.204722 0.23469,-1.408126 l -0.23519,-2.346876 v -4.928441 -1.877501 l -0.23469,-1.173439 v -0.93875 l 0.11734,-4.811097 0.35204,-6.453911 v -0.469375 l 0.46937,-2.581564 0.93875,-3.05094 0.82141,-0.586719 h 1.8775 l 0.70406,0.234688 h 3.52032 c 0.90746,0.125159 1.5724,0.0077 1.99484,-0.352032 l 2.9336,-1.290782 c 2.39388,-1.9872 3.99758,-4.764329 4.81116,-8.331581 0.29727,-2.096536 0.14081,-3.739349 -0.46938,-4.928441 -0.3755,-1.893155 -1.07956,-3.457724 -2.11218,-4.693753 l -1.29079,-1.056095 -0.11734,-0.352031 -2.46422,-1.056095 -0.35203,-0.586719 v -0.469375 l -0.70406,-1.173439 c -0.12517,-0.907466 0.0704,-1.494185 0.58671,-1.760157 l 1.0561,-2.933596 c 0.1721,-1.345534 0.0157,-2.36253 -0.46938,-3.050939 l -0.93855,-1.408126 c -0.50066,-0.985688 -1.4003,-1.572407 -2.6989,-1.760157 -0.42244,-0.187751 -0.53979,-0.696248 -0.35204,-1.52547 0.2034,-0.735347 0.12517,-1.204722 -0.23468,-1.408126 L 299.26379,4.663213 297.50363,3.372431 297.38629,3.020399 296.09551,2.43368 c -1.29861,-0.203404 -2.23736,-0.04694 -2.81626,0.469375 l -1.05609,2.229533 0.70406,2.346877 c 0.12517,1.063909 -0.10952,1.767972 -0.70406,2.112189 l -0.70406,2.581564 -0.23469,1.642813 v 0.469376 l -0.23469,0.704063 0.93875,2.346876 0.70406,1.173439 1.40813,1.642813 -0.82141,2.698908 -1.76015,4.341722 -1.52547,1.056094 c -0.42244,-0.18775 -0.53979,-0.696248 -0.35204,-1.525469 -0.50066,-1.767973 -1.28296,-3.254344 -2.34687,-4.459066 0.0469,-0.970034 0.35985,-1.674097 0.93875,-2.112189 l 0.93875,-3.050939 v -0.469376 l -0.93875,-2.581564 0.23469,-0.704063 -0.58672,-0.117344 -1.29079,-1.525469 c -0.26597,-0.970035 -0.18775,-1.595877 0.23469,-1.877502 V 7.94884 l -0.23469,-0.704063 -0.70406,-1.173438 0.23469,-0.469376 -0.46938,-1.408125 -1.52547,-1.056095 -2.58156,-0.469375 c -1.39248,-0.219034 -2.48769,-0.140813 -3.28563,0.234687 l -1.17344,0.234688 -1.52546,1.760158 c -0.18775,0.751 -0.10953,1.220375 0.23468,1.408125 l -0.46937,1.642814 v 0.469375 l -0.23469,0.704063 c -0.0939,0.954405 0.0626,1.658468 0.46937,2.112189 l 0.70407,1.173438 -0.35203,0.117344 -1.76016,2.933596 0.23469,1.877501 0.70406,1.408126 1.17344,1.877501 c 0.15646,1.095217 0,1.877502 -0.46938,2.346877 l -1.17344,3.285627 c 0.15646,0.704063 0.0391,1.134316 -0.35203,1.290782 l -0.70406,-0.469375 -0.46938,0.234688 -0.46937,-0.234688 -1.40813,-3.755002 -1.05609,-1.994846 -1.40813,-1.642813 0.23469,-3.520315 0.46938,-1.642814 0.23468,-0.93875 c 0.12517,-2.86319 -0.57889,-4.897157 -2.11219,-6.101879 -0.0939,-0.719717 0.0626,-1.189092 0.46938,-1.408126 0.35985,-0.735347 0.43808,-1.752343 0.23469,-3.05094 L 266.29017,1.49493 265.93814,0.438835 c -0.12321,-0.277236 -0.38438,-0.422884 -0.78382,-0.437293 z m -3.01564,24.698129 c 0.0131,-0.0066 0.18625,0 0.22277,0 h 0.44462 0.94517 c 0.0204,0 0.22007,-0.0023 0.22231,0 0.0131,0.01314 -0.0131,0.04236 0,0.05546 0.0262,0.02622 0.0778,-0.01666 0.11092,0 0.0234,0.01173 0.0325,0.04422 0.0559,0.05593 0.0332,0.01666 0.0778,-0.01666 0.11093,0 0.0234,0.01173 0.0325,0.04375 0.0559,0.05546 0.0332,0.01666 0.0847,-0.02619 0.11093,0 0.0131,0.01314 -0.0131,0.04236 0,0.05548 0.0131,0.01314 0.0369,0 0.0555,0 0.0394,0 0.31932,-0.0073 0.33369,0 0.0234,0.01173 0.032,0.04419 0.0555,0.05593 0.0332,0.01666 0.0852,-0.02622 0.11139,0 0.0131,0.01314 -0.0131,0.04234 0,0.05546 0.0172,0.01713 0.26056,-0.01713 0.27777,0 0.0131,0.01314 -0.0131,0.04236 0,0.05546 0.0131,0.01314 0.0428,-0.01314 0.0559,0 0.0131,0.01314 -0.0131,0.04236 0,0.05546 0.0278,0.02781 0.13905,-0.02779 0.16685,0 0.0131,0.01314 -0.0131,0.04283 0,0.05593 0.0131,0.01314 0.0424,-0.01314 0.0555,0 0.0131,0.01314 -0.0131,0.04236 0,0.05546 0.14826,0 -0.0187,-0.01877 0.0555,0.05548 0.0373,0.03729 0.0741,-0.03732 0.11139,0 0.0131,0.01314 -0.0131,0.04281 0,0.0559 0.0131,0.01314 0.0424,-0.01314 0.0555,0 0.0131,0.01314 -0.0131,0.04236 0,0.05548 0.0278,0.02779 0.13905,-0.02781 0.16684,0 0.0131,0.01314 -0.0131,0.04236 0,0.05546 0.0131,0.01314 0.0389,-0.0082 0.0555,0 0.0469,0.02347 0.0645,0.08794 0.11139,0.111383 0.0332,0.01666 0.0778,-0.01666 0.11093,0 0.23137,0.115701 -0.0591,-0.004 0.0559,0.110937 0.0131,0.01314 0.0424,-0.01314 0.0555,0 0.0131,0.01314 -0.008,0.03933 0,0.0559 0.0117,0.02347 0.0437,0.03204 0.0555,0.05548 0.008,0.01666 -0.0131,0.04236 0,0.05546 0.0293,0.02931 0.0821,0.02617 0.11138,0.05546 0.0131,0.01314 -0.0131,0.04283 0,0.05593 0.0131,0.01314 0.0424,-0.01314 0.0555,0 0.0131,0.01314 -0.0131,0.04236 0,0.05548 0.11503,0.11502 -0.004,-0.175922 0.11139,0.05546 0.0166,0.03314 -0.0262,0.08517 0,0.111383 0.0131,0.01314 0.0424,-0.01314 0.0555,0 0.0131,0.01314 -0.0131,0.04236 0,0.05546 0.0131,0.01314 0.0424,-0.01314 0.0555,0 0.0131,0.01314 -0.0131,0.04236 0,0.05546 0.0131,0.01314 0.0389,-0.0082 0.0555,0 0.0234,0.01173 0.0325,0.04421 0.0559,0.05593 0.0302,0.01502 0.20709,-0.01525 0.22231,0 0.0131,0.01314 -0.0131,0.04236 0,0.05548 0,-0.008 0.011,-0.0052 0.0229,-0.0023 0.0161,-0.0042 0.0325,-0.01056 0.0325,0.0023 0,0.01056 -0.0171,0.0035 -0.0325,-0.0023 -0.009,0.0023 -0.0183,0.0059 -0.0229,0.0023 0,0.115677 0.0777,0.02229 0.11092,0.05546 0.0262,0.02622 -0.0262,0.08517 0,0.111383 0.0131,0.01314 0.0428,-0.01314 0.0559,0 0.0131,0.01314 -0.0131,0.04236 0,0.05546 0.0262,0.02621 0.0847,-0.02619 0.11093,0 0.0131,0.01314 -0.008,0.03889 0,0.05546 0.0117,0.02347 0.0442,0.0325 0.0559,0.05593 0.0166,0.03316 -0.0262,0.08472 0,0.110936 0.0131,0.01314 0.0424,-0.01314 0.0555,0 0.0262,0.02622 -0.0166,0.07822 0,0.111383 0.0117,0.02347 0.0437,0.03201 0.0555,0.05546 0.0166,0.03316 -0.0166,0.07825 0,0.111383 0.0117,0.02347 0.0437,0.03204 0.0555,0.05548 0.0175,0.03506 -0.0175,0.24269 0,0.277776 0.0117,0.02347 0.0442,0.03248 0.0559,0.0559 0.0222,0.04447 -0.0222,0.12239 0,0.166863 0.0117,0.02347 0.0437,0.03201 0.0555,0.05546 0.008,0.01666 -0.0131,0.04236 0,0.05546 0.0131,0.01314 0.0424,-0.01314 0.0555,0 0.0262,0.02622 -0.0262,0.08519 0,0.111383 0.0131,0.01314 0.0374,0 0.0559,0 0,0.03708 -0.0166,0.07778 0,0.110937 0.008,0.01666 0.0424,-0.01314 0.0555,0 0.0131,0.01314 0,0.03739 0,0.05593 0.0185,0 0.0389,-0.0082 0.0555,0 0.23137,0.115677 -0.0596,-0.004 0.0555,0.110913 0.0131,0.01314 0.0428,-0.01314 0.0559,0 0.0131,0.01314 -0.0131,0.04236 0,0.05548 0.0131,0.01314 0.0389,-0.0082 0.0555,0 0.0469,0.02347 0.0645,0.08794 0.11139,0.111383 0.0166,0.0082 0.0424,-0.01314 0.0555,0 0.0262,0.02619 -0.0262,0.08517 0,0.111383 0.0131,0.01314 0.0424,-0.01314 0.0555,0 0.0131,0.01314 0,0.03692 0,0.05546 0,0.01854 0.0185,0.05546 0,0.05546 v 0.166863 c 0,0.130369 0.0132,-0.02603 -0.0555,0.111382 -0.0166,0.03314 0.0166,0.07778 0,0.110914 -0.0117,0.02347 -0.0437,0.03203 -0.0555,0.05548 -0.008,0.01596 0,0.248534 0,0.278222 v 0.611479 0.667381 0.05548 c 0,0.01854 0.0131,0.04236 0,0.05546 -0.0131,0.01314 -0.0428,-0.01314 -0.0559,0 -0.0131,0.01314 0,0.03694 0,0.05546 0,0.04551 0.008,0.317439 0,0.333702 -0.008,0.01666 -0.0424,-0.01314 -0.0555,0 -0.0262,0.02622 0.0262,0.08517 0,0.111383 -0.0131,0.01314 -0.0424,-0.01314 -0.0555,0 -0.0764,0.07644 0.0764,0.03448 0,0.110937 -0.0131,0.01314 -0.0476,-0.01666 -0.0559,0 -0.0175,0.03492 0.0175,0.187351 0,0.222296 -0.0117,0.02347 -0.0437,0.03248 -0.0555,0.05593 -0.008,0.01666 0,0.03694 0,0.05546 v 0.05548 0.0559 c 0,0.01596 0.0125,0.04457 0.004,0.05227 0.002,0.01995 0.002,0.03994 -0.004,0.05867 -0.008,0.02485 -0.0437,0.03201 -0.0555,0.05546 -0.008,0.01666 0.008,0.03936 0,0.05593 -0.0117,0.02347 -0.0437,0.03204 -0.0555,0.05546 -0.011,0.02206 0.0114,0.155481 0,0.166863 -0.0131,0.01314 -0.0428,-0.01314 -0.0559,0 -0.0131,0.01314 0.008,0.03889 0,0.05546 -0.0117,0.02347 -0.0437,0.03203 -0.0555,0.05546 -0.0383,0.0767 0.0675,0.04992 -0.0555,0.111383 -0.0166,0.0082 -0.0428,-0.01314 -0.0559,0 -0.0131,0.01314 0.008,0.03889 0,0.05548 -0.0117,0.02347 -0.0369,0.03739 -0.0555,0.0559 -0.0185,0.01854 -0.032,0.04375 -0.0555,0.05548 -0.0332,0.01666 -0.0852,-0.02622 -0.11138,0 -0.0131,0.01314 0.0131,0.04236 0,0.05546 -0.0262,0.02621 -0.0778,-0.01666 -0.11093,0 -0.0234,0.01173 -0.0325,0.04375 -0.0559,0.05546 -0.0166,0.0082 -0.0424,-0.01314 -0.0555,0 -0.0131,0.01314 0.0131,0.04283 0,0.05593 -0.11503,0.11502 0.005,-0.175899 -0.11093,0.05546 -0.008,0.01666 0.0166,0.0472 0,0.05548 -0.0332,0.01666 -0.0782,-0.01666 -0.11138,0 -0.0166,0.0082 0.0131,0.04281 0,0.05593 -0.11503,0.11502 0.004,-0.175922 -0.11139,0.05546 -0.008,0.01666 0.006,0.03788 0,0.05546 -0.0131,0.03931 -0.0424,0.07207 -0.0555,0.111383 -0.006,0.0176 0.0131,0.04236 0,0.05546 -0.0131,0.01314 -0.0424,-0.01314 -0.0555,0 -0.0131,0.01314 0.0131,0.04236 0,0.05548 -0.0131,0.01314 -0.0424,-0.01314 -0.0555,0 -0.0131,0.01314 0.008,0.03933 0,0.05593 -0.0117,0.02347 -0.0442,0.03201 -0.0559,0.05546 -0.008,0.01666 0.008,0.03889 0,0.05546 -0.0117,0.02347 -0.0437,0.03204 -0.0555,0.05546 -0.008,0.01666 0.0131,0.04283 0,0.05593 -0.11503,0.115043 0.004,-0.175899 -0.11138,0.05546 -0.008,0.01666 0.008,0.03889 0,0.05548 -0.0117,0.02347 -0.0369,0.03739 -0.0555,0.05593 -0.0185,0.01854 -0.032,0.04372 -0.0555,0.05546 -0.0166,0.0082 -0.0424,-0.01314 -0.0555,0 -0.0131,0.01314 0.0131,0.04236 0,0.05546 -0.0131,0.01314 -0.0428,-0.01314 -0.0559,0 -0.0741,0.07414 0.11806,0.05356 -0.0555,0.111382 -0.0352,0.01173 -0.0782,-0.01666 -0.11139,0 -0.0166,0.0082 0.0131,0.04236 0,0.05548 -0.0131,0.01314 -0.0389,-0.0082 -0.0555,0 -0.0235,0.01173 -0.032,0.04372 -0.0555,0.05546 -0.0445,0.02229 -0.12237,-0.0223 -0.16685,0 -0.0166,0.0082 0.0131,0.04281 0,0.05593 -0.0131,0.01314 -0.0369,0 -0.0555,0 h -0.0559 -0.44462 c -0.0185,0 -0.0424,-0.01314 -0.0555,0 -0.0131,0.01314 0.0131,0.04234 0,0.05546 -0.0131,0.01314 -0.0389,-0.0082 -0.0555,0 -0.0469,0.02347 -0.0645,0.08749 -0.11139,0.110913 -0.0331,0.01666 -0.0852,-0.02619 -0.11138,0 -0.0131,0.01314 0.0166,0.04764 0,0.05593 -0.0331,0.01666 -0.0778,-0.01666 -0.11093,0 -0.0166,0.0082 0.0131,0.04236 0,0.05548 -0.0131,0.01314 -0.0389,-0.0082 -0.0555,0 -0.0235,0.01173 -0.0325,0.04372 -0.0559,0.05546 -0.0166,0.0082 -0.0369,0 -0.0555,0 h -0.0555 -0.44508 c -0.0556,0 -0.11365,-0.0176 -0.16639,0 -0.0249,0.0082 -0.0325,0.04419 -0.0559,0.05593 -0.0445,0.02229 -0.12237,-0.02229 -0.16685,0 -0.0234,0.01173 -0.0306,0.04717 -0.0555,0.05546 -0.0352,0.01173 -0.0778,-0.01666 -0.11093,0 -0.0166,0.0082 0.0131,0.04236 0,0.05546 -0.0131,0.01314 -0.0374,0 -0.0559,0 h -0.27757 -0.44462 -0.0559 c -0.0185,0 -0.0424,0.01314 -0.0555,0 -0.0131,-0.01314 0.0131,-0.04236 0,-0.05546 -0.0134,-0.01338 -0.20893,0.01338 -0.22231,0 -0.0131,-0.01314 0.0131,-0.04236 0,-0.05546 -0.0262,-0.02622 -0.0782,0.01666 -0.11139,0 -0.0235,-0.01173 -0.032,-0.04421 -0.0555,-0.05593 -0.0331,-0.01666 -0.0782,0.01666 -0.11138,0 -0.0234,-0.01173 -0.032,-0.04375 -0.0555,-0.05546 -0.0166,-0.0082 -0.0379,0.0059 -0.0555,0 -0.0393,-0.01314 -0.0721,-0.04236 -0.11139,-0.05548 -0.0307,-0.01009 -0.21042,0.01197 -0.22231,0 -0.0131,-0.01314 0.0131,-0.04281 0,-0.05593 -0.0278,-0.02779 -0.13905,0.02781 -0.16685,0 -0.0131,-0.01314 0.0131,-0.04234 0,-0.05546 -0.0131,-0.01314 -0.0389,0.0082 -0.0555,0 -0.0234,-0.01173 -0.032,-0.04375 -0.0555,-0.05546 -0.0166,-0.0082 -0.0393,0.0082 -0.0559,0 -0.0469,-0.02347 -0.0641,-0.08794 -0.11092,-0.111382 -0.0331,-0.01666 -0.0852,0.02621 -0.11139,0 -0.0262,-0.02622 0.0262,-0.08472 0,-0.110937 -0.0131,-0.01314 -0.0389,0.0082 -0.0555,0 -0.0234,-0.01173 -0.032,-0.04419 -0.0555,-0.05593 -0.0166,-0.0082 -0.0393,0.0082 -0.0559,0 -0.0234,-0.01173 -0.032,-0.04372 -0.0555,-0.05546 -0.0166,-0.0082 -0.0424,0.01314 -0.0555,0 -0.0131,-0.01314 0.0131,-0.04236 0,-0.05546 -0.0293,-0.02931 -0.0769,-0.03248 -0.11138,-0.05546 -0.0218,-0.01455 -0.032,-0.04421 -0.0555,-0.05593 -0.0332,-0.01666 -0.0782,0.01666 -0.11139,0 -0.0827,-0.04135 -0.0282,-0.06959 -0.11092,-0.110937 -0.022,-0.01103 -0.15548,0.01126 -0.16685,0 -0.0131,-0.01314 0.0131,-0.04281 0,-0.05593 -0.0278,-0.02779 -0.13905,0.02781 -0.16685,0 -0.0131,-0.01314 0.0131,-0.04236 0,-0.05546 -0.0131,-0.01314 -0.0424,0.01314 -0.0555,0 -0.0131,-0.01314 0.0131,-0.04236 0,-0.05546 -0.0262,-0.02621 -0.0852,0.02622 -0.11138,0 -0.0131,-0.01314 0,-0.03694 0,-0.05546 -0.0185,0 -0.0424,0.01314 -0.0555,0 -0.0131,-0.01314 0.0131,-0.04283 0,-0.05593 -0.0262,-0.02621 -0.0852,0.02619 -0.11139,0 -0.0131,-0.01314 0.0131,-0.04236 0,-0.05548 -0.0131,-0.01314 -0.0424,0.01314 -0.0555,0 -0.0131,-0.01314 0.0131,-0.04236 0,-0.05546 0,0.008 -0.011,0.0052 -0.0229,0.0023 -0.0161,0.0042 -0.0325,0.01056 -0.0325,-0.0023 0,-0.01056 0.0171,-0.0035 0.0325,0.0023 0.009,-0.0023 0.0183,-0.0059 0.0229,-0.0023 0,-0.115677 -0.0782,-0.02276 -0.11138,-0.05593 -0.0131,-0.01314 0.0131,-0.04236 0,-0.05546 -0.0131,-0.01314 -0.0389,0.0082 -0.0555,0 -0.23137,-0.115677 0.0596,0.004 -0.0555,-0.110913 -0.0131,-0.01314 -0.0424,0.01314 -0.0555,0 -0.0131,-0.01314 0.0131,-0.04283 0,-0.05593 -0.0131,-0.01314 -0.0428,0.01314 -0.0559,0 -0.0131,-0.01314 0.0131,-0.04236 0,-0.05548 -0.0262,-0.02619 -0.0847,0.02621 -0.11093,0 -0.0262,-0.02619 0.0262,-0.08517 0,-0.111383 -0.0131,-0.01314 -0.0428,0.01314 -0.0559,0 -0.0262,-0.02619 0.0262,-0.08472 0,-0.110913 -0.0131,-0.01314 -0.0389,0.0082 -0.0555,0 -0.23137,-0.115701 0.0596,0.0038 -0.0555,-0.111383 -0.0131,-0.01314 -0.0424,0.01314 -0.0555,0 -0.0131,-0.01314 0.008,-0.03889 0,-0.05548 -0.0117,-0.02347 -0.0442,-0.03201 -0.0559,-0.05546 -0.008,-0.01666 0,-0.03739 0,-0.05593 -0.0185,-0.01854 -0.0409,-0.03365 -0.0555,-0.05546 -0.023,-0.03448 -0.0424,-0.07163 -0.0555,-0.110937 -0.0117,-0.03516 0.0262,-0.08517 0,-0.111383 -0.0131,-0.01314 -0.0428,0.01314 -0.0559,0 -0.0131,-0.01314 0.0131,-0.04236 0,-0.05546 -0.0131,-0.01314 -0.0424,0.01314 -0.0555,0 -0.0131,-0.01314 0.0131,-0.04281 0,-0.05593 -0.11503,-0.11502 0.005,0.175922 -0.11093,-0.05546 -0.008,-0.01666 0.0131,-0.04236 0,-0.05546 -0.0131,-0.01314 -0.0393,0.0082 -0.0559,0 -0.0148,-0.0075 -0.15946,-0.152101 -0.16684,-0.166863 -0.008,-0.01666 0.008,-0.03889 0,-0.05546 -0.0234,-0.04689 -0.0875,-0.06449 -0.11093,-0.111383 -0.0249,-0.04973 0.0249,-0.117132 0,-0.166839 -0.008,-0.01666 -0.0424,0.01314 -0.0555,0 -0.0152,-0.01525 0.0151,-0.192162 0,-0.22232 -0.0117,-0.02347 -0.0442,-0.03203 -0.0559,-0.05546 -0.0192,-0.03842 0.0195,-0.258719 0,-0.278245 -0.0131,-0.01314 -0.0424,0.01314 -0.0555,0 -0.0262,-0.02622 0.0262,-0.08472 0,-0.110914 -0.0131,-0.01314 -0.0424,0.01314 -0.0555,0 -0.0152,-0.01525 0.0151,-0.192162 0,-0.222319 -0.0117,-0.02347 -0.0442,-0.03248 -0.0559,-0.05593 -0.008,-0.01666 0,-0.03694 0,-0.05546 v -0.05546 -0.333702 -0.444616 c 0,-0.03654 -0.0105,-0.135485 0,-0.166863 0.13423,-0.402701 -0.0158,0.08758 0.11138,-0.16684 0.0166,-0.03316 -0.0166,-0.07825 0,-0.111382 0.0117,-0.02347 0.0437,-0.03203 0.0555,-0.05548 0.0166,-0.03314 -0.0262,-0.0847 0,-0.110914 0.0131,-0.01314 0.0428,0.01314 0.0559,0 0.0131,-0.01314 -0.008,-0.03936 0,-0.05593 0.0117,-0.02347 0.0437,-0.03201 0.0555,-0.05546 0.0166,-0.03316 -0.0262,-0.08519 0,-0.111382 0.0131,-0.01314 0.0472,0.01666 0.0555,0 0.0166,-0.03316 0,-0.07388 0,-0.110937 0,-0.184793 -0.0139,-0.101057 0.22232,-0.278223 0.022,0 -0.0166,-0.411407 0,-0.444639 0.0117,-0.02347 0.0442,-0.03201 0.0559,-0.05546 0.0175,-0.03495 -0.0175,-0.187374 0,-0.222319 0.0234,-0.04687 0.0944,-0.06165 0.11092,-0.111383 0.011,-0.03307 -0.0124,-0.265362 0,-0.277777 0,-0.04142 0.0262,-0.08207 0.0555,-0.111382 0.0262,-0.02619 0.0852,0.02621 0.11139,0 0.0131,-0.01314 -0.0131,-0.04236 0,-0.05546 0,-0.02622 0.0369,-0.03694 0.0555,-0.05546 0.0185,-0.01854 0.0374,-0.03739 0.0559,-0.05593 0.0185,-0.01854 0.0437,-0.03204 0.0555,-0.05546 0.008,-0.01666 -0.0131,-0.04236 0,-0.05548 0.0131,-0.01314 0.0424,0.01314 0.0555,0 0.0131,-0.01314 -0.0131,-0.04281 0,-0.05593 0.0293,-0.02929 0.0821,-0.02614 0.11138,-0.05546 0.0131,-0.01314 -0.0131,-0.04236 0,-0.05546 0.0293,-0.02931 0.0816,-0.02617 0.11093,-0.05546 0.0131,-0.01314 -0.0131,-0.04283 0,-0.05593 0.0131,-0.01314 0.0428,0.01314 0.0559,0 0.0131,-0.01314 -0.0131,-0.04236 0,-0.05546 0.0131,-0.01314 0.0424,0.01314 0.0555,0 0.0131,-0.01314 0,-0.03694 0,-0.05548 0.0185,0 0.0389,0.0082 0.0555,0 0.0235,-0.01173 0.0369,-0.03739 0.0555,-0.05593 0.0185,-0.01854 0.0442,-0.03201 0.0559,-0.05546 0.008,-0.01666 -0.008,-0.03889 0,-0.05546 0.11568,-0.231379 -0.004,0.05956 0.11093,-0.05546 0.0131,-0.01314 -0.0131,-0.04283 0,-0.05593 0.0131,-0.01314 0.0428,0.01314 0.0559,0 0.0131,-0.01314 -0.008,-0.03889 0,-0.05546 0.11568,-0.231379 -0.004,0.05956 0.11092,-0.05548 0.0131,-0.01314 -0.006,-0.03832 0,-0.05593 0.13423,-0.402677 -0.0158,0.08806 0.11139,-0.16637 0.008,-0.01666 -0.0131,-0.04283 0,-0.05593 0.0262,-0.02622 0.0847,0.02619 0.11092,0 0.0131,-0.01314 -0.0131,-0.04236 0,-0.05548 0.0131,-0.01314 0.0393,0.0082 0.0559,0 0.16954,-0.08477 -0.10207,-0.04426 0.16639,-0.111383 0.036,-0.0089 0.0762,0.01173 0.11139,0 0.0249,-0.0082 0.032,-0.04372 0.0555,-0.05546 0.0166,-0.0082 0.0374,0 0.0559,0 0.0185,-0.01854 0.032,-0.04375 0.0555,-0.05546 0.0349,-0.01737 0.18737,0.01737 0.22231,0 0.0234,-0.01173 0.032,-0.04375 0.0555,-0.05546 0.0332,-0.01666 0.0852,0.02619 0.11139,0 0.0131,-0.01314 -0.0131,-0.04283 0,-0.05593 0.0278,-0.02781 0.13904,0.02779 0.16684,0 0.0131,-0.01314 0,-0.03694 0,-0.05548 0.0185,0 0.0424,0.01314 0.0555,0 0.0131,-0.01314 -0.0131,-0.04236 0,-0.05546 0.0131,-0.01314 0.0424,0.01314 0.0555,0 0.11503,-0.11502 -0.17545,0.0042 0.0559,-0.111383 0.0166,-0.0082 0.0424,0.01314 0.0555,0 0.0131,-0.01314 -0.008,-0.03889 0,-0.05546 0.0334,-0.06672 0.13349,-0.100141 0.16685,-0.166862 0.008,-0.01666 -0.0131,-0.04236 0,-0.05546 0.0262,-0.02622 0.0847,0.02621 0.11093,0 0.0131,-0.01314 -0.0131,-0.04281 0,-0.05593 0.004,-0.0045 0.23447,0 0.27823,0 h 0.0555 c 0.0185,0 0.0424,0.01314 0.0555,0 0.0131,-0.01314 -0.0166,-0.04717 0,-0.05546 z m 36.64106,1.540138 c 0.23469,0 0.51338,0.044 0.83608,0.132012 1.06392,0.359847 1.88532,0.946566 2.46422,1.760157 l 0.46937,0.938751 0.23469,0.704063 v 1.877501 l -0.23469,0.704063 -0.23468,0.938751 -0.58672,0.821407 -1.64282,0.93875 -1.17343,0.469375 h -2.11219 l -1.0561,-0.586719 -0.11734,-0.352031 -1.29078,-1.056094 -0.46938,-1.408126 -0.23469,-1.877502 0.58672,-1.290782 0.93875,-1.642813 2.34688,-0.938751 0.46938,0.234688 c 0.14668,-0.244474 0.41559,-0.3667 0.80673,-0.3667 z m -27.8334,65.562203 c 0.56124,0.02206 2.5532,0.104694 5.66826,0.236518 3.49838,0.148041 6.35437,0.268342 6.41999,0.270431 l -0.0816,0.244779 0.35203,-0.117344 0.11734,-0.352032 3.40297,0.117344 0.11735,0.352032 0.35203,-0.117344 0.11734,-0.352032 4.45907,-0.234687 0.46937,0.704063 -1.64281,-0.469376 h -0.46938 l -1.05609,0.352032 0.11734,0.352031 2.11219,-0.234687 0.11735,0.352031 -2.22954,0.117344 -0.58672,-0.352031 -0.11734,-0.352032 -0.23469,0.469375 -0.70406,-0.234687 -0.23469,0.469375 -1.17344,-0.234688 h -0.46937 l -1.40813,0.234688 -0.70406,-0.234688 h -0.46937 l -1.8775,-0.234687 -0.70406,0.234687 c -0.5789,-0.109528 -0.93093,0.0077 -1.05609,0.352032 l 1.05609,0.352031 h 0.46938 6.33656 l 2.81625,0.234688 1.40813,-0.469375 0.70406,0.234687 c 0.59454,-0.109528 0.94658,0.0077 1.0561,0.352032 l -0.11735,0.352031 -2.11218,-0.469375 -0.11735,1.290782 2.22953,0.117344 c 0.28163,-0.578904 0.55543,-0.618003 0.82141,-0.117344 l -0.11734,0.586719 -0.93875,-0.234687 -0.46938,0.234687 c -0.18775,-0.344216 -0.65712,-0.422437 -1.40812,-0.234687 h -2.11219 l -0.93875,-0.234688 -0.93875,0.234688 -0.46938,-0.234688 -0.93875,0.234688 -0.70406,-0.234688 h -4.69376 c -1.04827,-0.265972 -1.71322,-0.148628 -1.99484,0.352031 l 2.69891,0.352032 3.40297,0.117344 0.11734,0.352031 0.23469,-0.704063 c 0.2034,0.359847 0.67277,0.438092 1.40812,0.234688 h 0.46938 l 0.35203,0.117344 -0.58672,0.352031 -0.46937,-0.234687 -0.23469,0.469375 -0.35203,-0.117344 -0.11735,-0.352031 -0.70406,0.469375 -1.17344,0.234688 c -0.23469,-0.391154 -0.78229,-0.469376 -1.64281,-0.234688 h -2.34688 l -1.40812,-0.234688 -0.70407,0.234688 h -1.64281 l -0.23469,-0.469375 -0.23469,0.704063 -0.35203,-0.117344 -0.11734,-0.352032 -0.23469,0.469376 -0.58672,-0.117344 -0.11734,-0.586719 -1.52547,0.117343 0.11734,0.352032 -0.35203,-0.117344 -0.11734,-0.352031 -1.17344,0.234687 -0.82141,-0.586719 6.21922,-0.117344 h 0.46938 l 0.35203,-0.117344 c -0.59454,-0.422437 -1.49418,-0.539781 -2.69891,-0.352031 h -5.39781 l -0.11735,0.352031 0.70407,0.234688 -0.11735,0.352032 -0.58672,-0.117344 -0.8214,-1.52547 -0.58672,-0.117344 0.11734,-0.352031 0.46938,0.234687 0.70406,-0.234687 0.23469,0.704063 0.46937,-0.704063 0.58672,-0.117344 -0.11734,-0.352032 -0.70407,0.234688 -0.93875,-0.469375 -0.35203,0.117344 1.0561,-1.290783 0.70406,-0.234687 0.23469,0.704063 0.58672,-0.352032 -0.0559,-0.391905 z m -2.54398,5.210793 2.11219,0.234688 h 5.6325 0.46938 l 2.81625,-0.234688 0.70406,0.234688 1.17344,-0.234688 0.93875,0.234688 h 2.11219 0.46938 3.755 c 0.86052,0.234688 1.40813,0.156466 1.64281,-0.234688 l 0.70407,0.234688 h 2.11219 l 0.35203,-0.117344 -0.35203,0.586719 -0.58672,0.117344 -0.11735,0.352032 -0.46937,-0.704063 -0.23469,0.704063 -0.93875,-0.469376 0.23469,0.704063 -1.8775,-0.704063 -0.23469,0.469376 -0.35203,-0.117344 -0.35204,-0.586719 -1.05609,0.352031 1.17344,0.234688 -0.11735,0.586719 -0.93875,-0.234688 -0.35203,0.117344 -0.11734,-0.586719 -0.70406,0.234688 -0.70407,-0.234688 v 0.469375 h -0.46937 c -0.84488,0.140813 -1.4316,0.02347 -1.76016,-0.352031 l -0.11734,-0.352032 -1.17344,0.234688 -0.35203,-0.117344 0.23468,0.469375 -0.58671,0.352032 -0.23469,-0.704063 c -0.81359,-0.18775 -1.32208,-0.07041 -1.52547,0.352031 l -0.11735,0.352032 -0.23468,-0.469375 -1.0561,0.117343 -0.11734,0.352032 -0.35203,-0.117344 c 0.35985,-0.18775 0.32074,-0.383315 -0.11735,-0.586719 l -0.35203,0.117344 -0.11734,0.352031 -1.64282,-0.234687 h -0.46937 c -0.89181,-0.187751 -1.43942,-0.03128 -1.64282,0.469375 -0.18775,-0.500659 -0.73535,-0.657126 -1.64281,-0.469375 l -0.46937,0.234687 -0.70407,-0.469375 -0.23468,0.469375 -0.58672,-0.117344 -0.11735,-0.586719 c -0.57889,0.125159 -0.93093,0.0077 -1.05609,-0.352031 z m 10.56095,1.877501 0.8214,0.352032 0.35203,0.821402 0.35203,-0.117339 0.11735,-0.586719 1.8775,-0.234688 0.46938,0.234688 0.23468,-0.469376 c 0.28163,0.907467 1.14215,1.220374 2.58157,0.938751 l 0.23469,-0.469375 0.35203,0.117344 0.58672,0.821404 c 1.14214,0.28163 1.84621,0.12516 2.11218,-0.469373 l 0.35204,0.821403 -0.35204,0.11735 -0.46937,-0.23469 -1.17344,0.46937 -0.46937,-0.23468 -0.11735,0.58672 0.58672,0.35203 2.34688,-0.70407 0.11734,0.35204 c -0.43808,0.5789 -1.22037,0.81359 -2.34688,0.70406 l -0.11734,0.58672 -1.29078,0.35203 0.11734,0.35203 1.17344,-0.23469 1.0561,-0.35203 -0.46938,-0.23469 0.35203,-0.11734 0.70406,0.23469 0.46938,-0.70406 0.35203,0.11734 -0.11734,0.58672 -0.58672,0.35203 0.35203,0.82141 1.64281,-0.46938 0.11735,0.58672 -0.58672,0.35203 -0.23469,-0.46937 -1.29078,0.58672 0.23469,0.46937 -0.35204,0.11735 -0.23468,-1.87751 -1.0561,0.11735 0.46938,1.64281 -11.26501,0.23469 0.11734,0.35203 2.22954,0.11734 0.11734,0.35204 0.93875,-0.46938 0.23469,0.46938 0.35203,-0.11735 0.11734,-0.35203 8.5661,0.11734 c -0.42243,0.28163 -0.30509,0.55544 0.35204,0.82141 l 1.05609,0.11734 -9.73954,0.11735 h -0.46937 -2.34688 l -1.40813,-0.23469 c -0.46937,0.23469 -0.46937,0.46938 0,0.70406 1.68976,0.28163 3.01965,0.20341 3.9897,-0.23468 l 0.93875,0.23468 h 1.8775 8.21406 c 0.2034,-0.34421 0.39897,-0.30509 0.58672,0.11735 l -0.11734,0.35203 h -0.46938 l -2.11218,-0.23469 0.11734,0.35203 -0.11734,0.35203 -5.04579,0.11735 0.11735,0.58672 c 0.751,0.2034 1.22037,0.12516 1.40812,-0.23469 l 0.46938,0.23469 c 0.23468,-0.39116 0.78229,-0.46938 1.64281,-0.23469 h 4.69375 l 0.11735,0.35203 -0.35203,0.11735 -0.35204,-0.11735 0.11735,0.82141 0.8214,0.11734 -0.11734,0.35203 -0.35203,0.11735 0.23469,0.46937 -1.0561,0.11735 -0.11734,-0.35203 0.23469,-0.93875 -0.46938,-0.23469 0.11734,-0.35203 -0.58672,0.11734 -0.23468,0.46938 0.70406,0.23468 -0.46937,0.70407 0.46937,0.23468 -0.11734,0.35204 -0.93875,-0.46938 -0.93875,0.46938 -0.70407,-0.23469 h -1.40812 l -0.46938,0.23469 -0.46937,-0.23469 c -0.46938,0.23469 -0.46938,0.46937 0,0.70406 l 1.8775,-0.23469 0.46937,0.23469 0.70407,-0.23469 c 0.20339,0.35985 0.67277,0.43809 1.40812,0.23469 0.2034,-0.34422 0.67277,-0.42244 1.40813,-0.23469 l 0.46937,0.23469 0.46938,-0.23469 0.35203,0.58672 -0.35203,0.11735 -0.70406,-0.23469 h -1.40813 l -0.11734,0.35203 0.93875,0.46937 -0.82141,0.11735 -0.70406,-0.93875 -0.35203,0.11734 -0.11735,0.82141 c -0.50067,0.35985 -1.28296,0.43809 -2.34688,0.23469 v -0.23469 l 2.22954,-0.35203 c -0.0782,-0.46938 -0.43026,-0.66494 -1.0561,-0.58672 l -0.70406,0.46937 -0.46938,-0.46937 h -0.46937 l -0.82141,0.11734 0.11735,0.35203 0.70406,-0.23468 v 0.23468 l -0.58672,0.35203 -0.11734,0.35204 c -1.06392,0.2034 -1.84621,0.12515 -2.34688,-0.23469 l -1.64281,0.46937 c -0.18775,-0.34421 -0.65713,-0.42243 -1.40813,-0.23468 l -0.70406,0.23468 h -1.40813 l -0.82141,-0.35203 0.11735,-0.35203 -0.70406,0.23469 c -0.18775,0.35984 -0.65713,0.43809 -1.40813,0.23469 l -0.23469,-0.70407 -0.93875,0.23469 -0.23469,-0.70406 -0.70406,0.23468 0.46938,-0.93874 -1.0561,0.11734 0.11734,1.52547 0.70407,-0.23469 0.11734,0.58672 -0.8214,0.11734 -0.93876,-0.23468 c -0.18775,0.35984 -0.65712,0.43809 -1.40812,0.23468 l -0.70406,-1.17343 -0.82141,0.11734 0.23469,0.70406 -0.35203,0.11735 -0.70407,-0.46938 -0.23469,0.46938 -0.46937,-0.93875 -1.40813,0.23468 -0.35203,-0.58672 1.29078,-0.35203 1.0561,0.35203 0.11734,0.35204 0.35203,-0.11735 -0.35203,-0.8214 -0.46937,-0.23469 -0.46938,0.23469 -0.70406,-0.23469 -0.70406,0.23469 -0.11735,-1.0561 1.17344,-0.70406 0.35203,-0.58672 1.52547,-0.11735 -0.11734,-0.35203 -1.99485,-0.11734 0.11735,-0.35203 0.70406,0.23469 0.35203,-1.29079 -0.11734,-0.35203 0.35203,0.11734 0.11734,0.35204 0.58672,-0.11735 -0.23469,-0.46937 0.58672,-0.11735 0.46938,0.23469 0.23468,-0.46937 0.35204,0.11734 0.11734,0.35203 0.58672,-0.35203 -0.82141,-0.35203 -1.99484,-0.35203 c -0.26598,-1.04828 -0.14864,-1.71322 0.35203,-1.99485 l 0.35203,-0.11734 -0.11734,-0.35203 -0.58672,-0.11735 0.23469,-0.46937 -0.23469,-0.46938 0.46937,-0.23469 -0.23468,-0.46937 0.70406,-0.23469 -0.70406,-0.938749 0.35203,0.117339 0.46937,0.23469 c 0.35986,-0.422435 0.98569,-0.578902 1.8775,-0.469373 1.06392,0.125159 1.76798,-0.109529 2.11219,-0.704063 l 0.46938,0.234688 0.46937,-0.234688 0.70407,0.234688 1.17343,-0.234688 2.11219,0.469375 0.11735,-0.352031 z m 8.68344,23.468764 3.16828,0.11735 -0.35203,0.58672 1.40813,-0.70407 0.35203,0.58672 c -0.32856,0.3755 -0.91528,0.49285 -1.76016,0.35203 l -2.81625,0.23469 h -0.46938 c -0.97004,0.28162 -1.59587,0.2034 -1.8775,-0.23469 l -0.46937,0.23469 -0.46938,-0.23469 -0.46937,0.23469 -0.70407,-0.23469 h -0.46937 -6.57126 -1.64281 l -0.93875,-0.23469 -0.93875,0.23469 -1.99485,0.11735 1.0561,0.35203 0.46937,-0.23469 0.93875,0.23469 1.52547,0.11734 0.11735,0.35203 0.35203,-0.11734 0.11734,-0.35203 6.57126,0.23469 0.46937,-0.23469 c 0.23469,0.39115 0.78229,0.46937 1.64282,0.23469 h 4.69375 l 0.70406,-0.23469 0.11735,0.58672 -0.35203,0.11734 -0.70407,-0.23469 -0.58672,0.35203 0.11735,0.35204 3.16828,0.11734 -1.64281,0.23469 0.11734,0.35203 0.58672,0.11734 -0.11734,0.35203 -0.58672,0.35204 0.58672,0.11734 0.70406,-0.23469 0.93875,0.23469 0.46937,-0.70406 0.35204,0.11734 0.11734,0.82141 0.35203,0.11734 -0.11734,0.35203 -0.35203,0.11735 -0.11735,0.58672 -1.8775,0.46937 -0.46937,-0.70406 -0.82141,0.35203 c -0.23469,0.46937 -0.82141,0.58672 -1.76016,0.35203 l -0.23469,-0.46937 -2.81625,0.70406 -0.93875,-0.23469 c -0.23469,0.39115 -0.78229,0.46938 -1.64281,0.23469 -0.18775,-0.34422 -0.65713,-0.42244 -1.40813,-0.23469 l -0.35203,0.11734 -0.46937,-0.23468 -0.11735,0.35203 -2.11219,-0.70406 -0.93875,0.46937 -0.46937,-0.23469 h -0.46938 l -0.46937,0.23469 h -0.46938 l -3.63766,-0.11734 0.11735,-0.58672 3.16828,-0.11735 -0.11735,-0.35203 -0.70406,0.23469 c -0.26598,-0.42244 -0.89181,-0.50066 -1.8775,-0.23469 l -1.17344,0.46938 -0.70406,-0.23469 c -0.5789,0.12516 -0.93093,0.008 -1.05609,-0.35203 l 0.93875,-0.23469 -0.11735,-0.35203 -1.05609,-0.58672 1.17344,-0.70406 c 0.15646,-0.39116 0.58672,-0.5085 1.29078,-0.35203 l 2.46422,-0.11735 -0.11735,-0.35203 -0.93875,-0.46937 -1.40812,0.46937 -0.23469,-0.70406 -0.70406,0.23469 h -0.46938 l -0.35203,-0.11735 0.11734,-1.05609 0.35204,0.11734 0.11734,0.58672 0.35203,-0.11734 0.35203,-0.82141 0.46938,0.23469 0.70406,-0.23469 h 2.58156 l 1.40813,0.23469 0.93875,-0.23469 h 2.34688 6.33656 1.64282 z m -35.22286,62.56398 c 1.55328,-0.0278 2.61594,0.43499 3.18799,1.38841 0.89182,0.82922 1.20473,2.23735 0.93876,4.22438 l -1.87751,4.22437 c -0.0313,0.751 -0.30509,1.2595 -0.8214,1.52547 l -1.52547,-1.05609 -0.58672,-0.82141 c -1.15779,-0.32856 -2.05743,-0.91528 -2.69891,-1.76016 l -0.93875,-2.11218 c -0.39115,-0.5476 -0.46938,-1.40813 -0.23469,-2.58157 0.14081,-1.03262 0.57108,-1.77581 1.29078,-2.22953 l 1.17344,-0.46938 h 0.46938 l 0.46937,-0.23468 c 0.41071,-0.0587 0.79528,-0.0912 1.15373,-0.0976 z m 19.76143,0.48038 c 0.88888,-0.009 1.54445,0.2157 1.96689,0.67334 l 0.11734,0.35203 0.35203,0.11735 c 0.61019,0.79793 0.884,1.93225 0.82141,3.40297 l 0.35203,-0.11735 0.11735,-0.35203 0.35203,0.11735 -0.11735,0.35203 -1.05609,0.35203 0.11734,0.58672 0.58672,0.35203 -0.11734,0.35203 -1.17344,-0.23469 -0.46937,0.70407 -1.87751,0.93875 -2.34687,-0.70407 -0.35203,1.0561 0.23468,0.70406 v 0.46938 l -0.11734,0.35203 -0.82141,-0.35203 0.46938,-0.70407 -0.23469,-0.70406 v -0.46938 l 0.11734,-0.35203 0.58672,-0.11734 c -0.35985,-0.5789 -0.98568,-0.89181 -1.8775,-0.93875 l 0.11735,-0.58672 0.35203,0.11734 -0.11735,-0.58672 -0.93875,0.23469 -0.11734,-0.35203 0.23469,-0.46937 -0.70407,-0.46938 0.11735,-0.35203 0.8214,0.58672 0.11735,0.35203 0.35203,-0.11734 c -0.18775,-0.73535 -0.10952,-1.20473 0.23469,-1.40813 l 0.23469,-1.17344 -0.11735,-0.35203 0.46938,0.23469 0.58672,-0.35203 0.11734,-0.35204 1.64281,-0.70406 c 0.34812,-0.0547 0.67042,-0.0837 0.96671,-0.0866 z m 36.58332,0.0866 1.76016,0.35203 0.11734,0.35203 1.76016,1.52547 0.58672,1.76016 0.11734,1.99485 -1.99484,3.40297 -3.05095,1.40812 -1.52546,-2.6989 c -0.81359,-1.12651 -1.04828,-2.84754 -0.70407,-5.16313 l 0.82141,-1.76016 0.58672,-0.35203 0.11734,-0.35203 z m -18.77501,0.46938 0.58672,0.11734 0.11734,0.35203 c 0.23469,-0.39115 0.78229,-0.46937 1.64281,-0.23469 1.15779,0.1721 1.9792,0.6806 2.46422,1.52547 0.54761,0.62585 0.70407,1.64282 0.46938,3.05094 l -0.23469,0.46938 0.35203,0.82141 0.46938,-0.93875 0.35203,0.11734 0.23469,0.70406 -0.70407,0.46938 0.70407,0.46937 0.23468,0.93875 -0.8214,0.11735 -0.58672,-0.82141 -0.58672,-1.29078 -0.35203,0.8214 0.46937,0.46938 c 0.35986,0.2034 0.32074,0.39897 -0.11734,0.58672 l -0.23469,-0.46938 -0.93875,-0.46937 -0.82141,0.58672 0.70407,0.46937 c -0.18775,0.43809 -0.38333,0.47719 -0.58672,0.11735 l -0.35203,-0.11735 -0.11735,-0.58672 -0.70406,0.46938 -3.16828,-1.99485 -0.23469,-3.28562 0.70406,-0.93875 -0.46937,-0.23469 0.35203,-0.11735 c 0.23469,0.39116 0.46937,0.31291 0.70406,-0.23468 l 0.35203,-0.11735 z m -27.59185,0.69078 c 1.64373,-0.0303 2.74429,0.48265 3.30167,1.53875 0.40679,0.45372 0.56325,1.15778 0.46938,2.11219 l -0.93875,3.05094 0.35203,-0.11735 0.35203,0.11735 -0.11734,0.58672 -0.35203,0.11734 -0.11735,0.82141 -0.23469,-0.70407 -0.58672,-0.11734 -0.11734,-0.58672 c -0.50067,0.43809 -1.24384,0.63366 -2.22953,0.58672 l 0.11734,0.58672 1.17344,-0.46938 0.11734,0.58672 -1.40812,0.70407 -0.11735,0.35203 -0.35203,-0.11735 0.23469,-1.64281 -1.76016,-1.05609 -0.23468,0.46937 -0.35204,-0.11734 0.11735,-0.35203 0.35203,-0.11735 -0.82141,-1.52547 -0.58672,-0.11734 0.11735,-0.35203 0.35203,-0.11735 0.23469,-1.8775 h -0.46938 l 0.11735,-0.58672 0.70406,0.23469 0.93875,-1.17344 1.40813,-0.70406 c 0.11441,-0.007 0.2264,-0.0113 0.33598,-0.0134 z m 9.70516,1.60843 c -0.0141,0.002 -0.0291,0.007 -0.0422,0.007 h -0.5505 c -0.0354,0 -0.21214,-0.012 -0.23607,0 -0.0332,0.0167 -0.0452,0.0623 -0.0784,0.0788 -0.0234,0.0117 -0.0603,-0.0185 -0.0788,0 -0.0185,0.0185 0.0185,0.0598 0,0.0784 -0.0185,0.0185 -0.0598,-0.0185 -0.0784,0 -0.0185,0.0185 0.0185,0.0603 0,0.0788 -0.0185,0.0185 -0.0725,-0.0254 -0.0788,0 -0.0254,0.10172 0,0.20963 0,0.31446 -0.0262,0.10484 -0.0572,0.20847 -0.0784,0.31444 -0.0105,0.0524 -0.007,0.10614 -0.004,0.15998 -0.0179,0.007 -0.002,0.0522 0.004,0.0756 0.0201,0.0804 0.0198,0.17747 0.0784,0.23607 0.0129,0.0129 0.0155,0 0.0151,-0.0183 0.0117,-0.0115 0.029,-0.0164 0.0637,0.0183 0.0371,0.0371 -0.0234,0.11035 0,0.15722 0.0166,0.0332 0.0522,0.0526 0.0784,0.0788 0.0262,0.0262 0.0457,0.0618 0.0788,0.0784 0.0234,0.0117 0.0598,-0.0186 0.0784,0 0.0185,0.0185 -0.0235,0.0671 0,0.0788 0.0258,0.0129 0.055,0.0115 0.0848,0.008 0.0131,0.008 0.0508,-0.008 0.0724,-0.008 h 0.15768 0.0784 c 0,0.0262 0.054,0.008 0.0788,0 0.0556,-0.0185 0.10163,-0.0603 0.15723,-0.0788 0.0541,-0.0181 0.18921,0.0232 0.2356,0 0.0332,-0.0167 0.0457,-0.0618 0.0788,-0.0784 0.0234,-0.0117 0.0598,0.0185 0.0784,0 0.0185,-0.0185 -0.0185,-0.0603 0,-0.0788 0.0185,-0.0185 0.0554,0.0117 0.0788,0 0.0331,-0.0167 0.0452,-0.0618 0.0784,-0.0784 0.0234,-0.0117 0.0554,0.0117 0.0788,0 0.0331,-0.0167 0.0452,-0.0623 0.0784,-0.0788 0.0234,-0.0117 0.0603,0.0185 0.0788,0 0.0185,-0.0185 -0.0117,-0.0554 0,-0.0788 0.0166,-0.0332 0.0618,-0.0453 0.0784,-0.0784 0.0117,-0.0235 0,-0.0526 0,-0.0788 v -0.0784 -0.15721 -0.0788 c 0,-0.0262 0.0117,-0.0549 0,-0.0784 -0.0331,-0.0663 -0.12407,-0.0909 -0.15722,-0.15722 -0.0234,-0.0469 0.0371,-0.12016 0,-0.15722 -0.0185,-0.0185 -0.0598,0.0185 -0.0784,0 -0.0185,-0.0185 0.0185,-0.0603 0,-0.0788 -0.16267,-0.16266 0.006,0.24884 -0.15722,-0.0784 -0.0117,-0.0235 0.0185,-0.0603 0,-0.0788 -0.0185,-0.0185 -0.0554,0.0117 -0.0788,0 -0.0331,-0.0167 -0.0452,-0.0618 -0.0784,-0.0784 -0.0234,-0.0117 -0.0603,0.0185 -0.0788,0 -0.0185,-0.0185 0.0185,-0.0603 0,-0.0788 -0.009,-0.009 -0.0221,-0.009 -0.0362,-0.007 z m 19.80727,0.47165 c -0.0141,-0.002 -0.0274,-0.002 -0.0367,0.007 -0.0185,0.0185 0.0185,0.0603 0,0.0788 -0.003,0.003 -0.28557,0 -0.31444,0 h -0.15722 c -0.0262,0 -0.0554,-0.0117 -0.0788,0 -0.0331,0.0167 -0.0432,0.0667 -0.0784,0.0784 -0.13501,0.045 -0.16231,-0.0687 -0.23607,0.0788 -0.0117,0.0235 0,0.0522 0,0.0784 v 0.39329 c -0.0262,0.10481 -0.0572,0.20848 -0.0784,0.31444 -0.005,0.0257 -0.0185,0.0603 0,0.0788 0.0185,0.0185 0.0598,-0.0185 0.0784,0 0.01,0.01 -0.008,0.12495 0,0.15724 0.009,0.0355 0.0262,0.0691 0.0417,0.10312 0.0147,0.0185 0.0303,0.0405 0.0371,0.0541 0.005,0.01 9.4e-4,0.0464 -4.6e-4,0.0765 0,0 4.6e-4,0 4.6e-4,0.002 0,0 -4.6e-4,0 -4.6e-4,0 -0.003,0.0667 -0.0104,0.14539 4.6e-4,0.1563 0.16267,0.16266 -0.006,-0.24837 0.15723,0.0788 0.0117,0.0235 -0.0117,0.0549 0,0.0784 0.0166,0.0332 0.0618,0.0457 0.0784,0.0788 0.0542,0.10845 -0.095,0.0703 0.0788,0.15724 0.0234,0.0117 0.0522,0 0.0784,0 h 0.0788 0.0788 c 0,0.0262 0.0522,0 0.0784,0 0.18438,0 -0.0371,0.0183 0.15722,-0.0788 0.0629,-0.0315 0.17317,0.0314 0.23606,0 0.0331,-0.0167 0.0452,-0.0618 0.0784,-0.0784 0.0469,-0.0235 0.12016,0.0371 0.15722,0 0.16268,-0.16266 -0.24836,0.006 0.0788,-0.15722 0.0469,-0.0235 0.12016,0.0371 0.15723,0 0.0185,-0.0185 -0.0117,-0.0554 0,-0.0788 0.0166,-0.0332 0.0618,-0.0452 0.0784,-0.0784 0.0117,-0.0235 -0.0117,-0.0554 0,-0.0789 0.0166,-0.0331 0.0623,-0.0452 0.0788,-0.0784 0.0102,-0.0204 0,-0.41594 0,-0.47168 v -0.23607 c 0.0262,0 0,-0.0526 0,-0.0788 0,-0.019 0.002,-0.23307 0,-0.2356 -0.0185,-0.0185 -0.0603,0.0185 -0.0788,0 -0.0185,-0.0185 0.0185,-0.0603 0,-0.0788 -0.0185,-0.0185 -0.0598,0.0186 -0.0784,0 -0.0534,-0.0534 0.0802,-0.15611 -0.0788,-0.2356 -0.0234,-0.0117 -0.0522,0 -0.0784,0 -0.18439,0 0.0371,0.0183 -0.15723,-0.0788 -0.0207,-0.0103 -0.27333,0 -0.31444,0 -0.0131,0 -0.0281,-0.004 -0.0422,-0.007 z m -0.82324,1.50165 c 6e-5,0 -5e-5,-0.002 0,-0.003 -4.7e-4,-0.0456 -0.0173,-0.0882 -0.0367,-0.13065 -0.0211,-0.0267 -0.0417,-0.0466 -0.0417,-0.0247 0,0.058 0.0769,0.21201 0.0784,0.15813 z m -28.2574,-0.80399 c -0.0173,0 -0.037,0.008 -0.0463,0.0169 -0.0185,0.0185 0.0185,0.0599 0,0.0784 -7e-5,7e-5 -0.23559,-1.2e-4 -0.23606,0 -0.0352,0.0117 -0.0452,0.0623 -0.0784,0.0788 -0.0469,0.0235 -0.12016,-0.0371 -0.15723,0 -0.0185,0.0185 0.0145,0.0571 0,0.0789 -0.0408,0.0613 -0.0831,0.15545 -0.1563,0.15674 0.0411,0.038 0.13925,0.009 -0.1586,0.15769 v 0.0784 c -0.0262,0 0,0.0526 0,0.0788 v 0.39284 c -0.0262,0.10481 -0.0784,0.20639 -0.0784,0.31444 0,0.037 0.0413,0.0788 0.0784,0.0788 0,0.0262 -0.0117,0.0549 0,0.0784 0.0166,0.0332 0.0418,0.0789 0.0788,0.0789 0.0185,0.0185 0.0598,-0.0185 0.0784,0 0.0185,0.0185 -0.0185,0.0598 0,0.0784 0.0371,0.0371 0.12062,-0.0371 0.15768,0 0.16268,0.16269 -0.24882,-0.006 0.0784,0.15769 0.0247,0.0124 0.71059,0 0.23606,0 h 0.15723 c 0.0354,0 0.21168,0.012 0.2356,0 0.0332,-0.0167 0.0457,-0.0623 0.0788,-0.0788 0.0469,-0.0235 0.12016,0.037 0.15722,0 0.0371,-0.0371 -0.0371,-0.12016 0,-0.15722 0.0185,-0.0185 0.0522,0 0.0784,0 0,-0.0262 -0.0185,-0.0603 0,-0.0789 0.0534,-0.0534 0.15656,0.0806 0.23607,-0.0784 0.0117,-0.0235 0,-0.0526 0,-0.0788 v -0.0784 c 0.0262,0 0,-0.0526 0,-0.0788 v -0.0784 c 0.0262,0 0,-0.0526 0,-0.0788 0,-0.019 0.002,-0.23309 0,-0.23563 -0.0538,-0.0538 -0.0761,-0.0155 -0.0843,0.0183 0.001,-0.0164 0.002,-0.0627 0.003,-0.10038 0.001,0 9.3e-4,0.003 0.002,0.003 0.0811,0 0.002,-0.0659 -0.0463,-0.1453 -0.0122,-0.003 -0.0256,-0.005 -0.0321,-0.012 -0.0129,-0.0129 7e-4,-0.0367 0.004,-0.0564 0.005,0.0232 0.0143,0.046 0.028,0.0683 0.0229,0.005 0.0463,0.005 0.0463,-0.012 0,-0.0371 -0.0784,-0.11547 -0.0784,-0.0784 -0.0185,-0.0185 -0.0603,0.0185 -0.0788,0 -0.0185,-0.0185 0.0185,-0.0603 0,-0.0788 -0.0185,-0.0185 -0.0598,0.0185 -0.0784,0 -0.0185,-0.0185 0,-0.0522 0,-0.0784 v -0.0788 -0.0784 c 0,-0.0262 0.0185,-0.0603 0,-0.0788 -0.0185,-0.0185 -0.0603,0.0185 -0.0788,0 -0.0524,-0.0524 0.0524,-0.10481 0,-0.15721 -0.0185,-0.0185 -0.0522,0 -0.0784,0 h -0.23607 c 0,-0.0131 -0.0147,-0.0178 -0.0321,-0.0169 z m -0.83286,0.56747 c 0,-0.005 -0.002,-0.0117 -0.003,-0.0174 -0.003,0.012 -0.005,0.0214 0.003,0.0174 z m -0.003,-0.0174 c 0.006,-0.0235 0.0205,-0.0614 0.003,-0.0614 -0.0216,0 -0.009,0.0342 -0.003,0.0614 z m 0.1618,-0.14027 c -0.005,-0.005 -0.008,-0.0122 -0.0105,-0.0202 -0.007,0.0122 -0.007,0.0206 0.009,0.0206 4.7e-4,0 9.4e-4,0 0.001,0 z m -0.0105,-0.0202 c 0.0175,-0.0318 0.088,-0.0942 0.088,-0.13659 0,-0.0371 -0.0623,0.0452 -0.0788,0.0784 -0.0136,0.0272 -0.0132,0.0445 -0.009,0.0582 z m 25.96737,6.93746 1.52547,1.29078 0.35203,0.58672 0.70406,-0.23469 1.17344,2.11219 1.40813,1.17344 0.35203,-0.11734 -0.11735,0.35203 0.35203,0.11734 v 0.46938 l 0.35204,0.58672 0.35203,-0.11735 -0.23469,-0.93875 v -0.46937 c -0.46938,-1.17344 -1.21255,-2.07307 -2.22953,-2.69891 l -0.46938,0.23469 -0.35203,-0.82141 1.76016,-0.35203 0.70406,0.23468 h 0.46938 l 1.40812,-0.23468 c 0.0782,0.54759 0.46938,0.78228 1.17344,0.70406 l 1.17344,0.46938 0.70406,-0.23469 0.11735,0.35203 -0.46938,0.23469 v 1.8775 c -0.10952,0.59453 0.008,0.94656 0.35203,1.05609 0.2034,-0.34421 0.39897,-0.30509 0.58672,0.11735 l -0.11734,2.6989 -0.35203,-0.8214 c 0.35985,-0.18775 0.43808,-0.65713 0.23468,-1.40813 l -0.35203,-0.11734 -0.35203,1.52547 0.35203,1.52547 0.46938,-0.23469 0.11734,0.82141 -0.46937,0.23468 -0.11735,-0.35203 -0.35203,0.11735 0.35203,1.52547 0.58672,0.35203 -0.11734,0.8214 -2.69891,-4.34172 -0.58672,-0.8214 -0.35203,-0.82141 -0.58672,-1.52547 -0.11735,1.99484 2.11219,2.58157 c -0.10952,0.59453 0.008,0.94656 0.35204,1.05609 l 0.70406,1.17344 0.35203,0.11735 0.58672,1.05609 0.58672,0.35203 -0.11735,0.35203 -0.58671,0.35203 0.46937,0.70407 -0.35203,0.58672 -2.11219,-2.58157 -0.35203,0.11735 1.29078,1.99484 0.35203,0.11734 0.58672,0.82141 0.82141,0.58672 -0.11735,1.0561 -0.46937,-0.70407 -0.35203,0.11735 0.8214,1.29078 0.35204,0.11734 0.35203,0.82141 0.8214,0.35203 -0.11734,0.58672 0.23469,0.46937 0.58672,-0.11734 -0.46938,-0.70406 0.35203,-0.11735 0.35203,0.82141 -0.23468,0.46938 0.35203,0.11734 c 0.19027,-0.28541 0.377,-0.3183 0.56013,-0.11093 l -0.011,0.006 c 0.1823,0.71799 0.28845,1.45193 0.36029,2.18828 -0.006,0.45735 0.0996,0.89795 0.17968,1.34396 l -0.033,-0.0243 -0.82141,-1.05609 -0.35203,-0.11735 -0.11735,-0.35203 -0.35203,0.11735 0.58672,1.05609 0.35203,0.11734 0.81133,0.95892 c 0.0103,0.2067 0.0134,0.41386 0.0165,0.62064 0.0473,0.46624 0.18982,0.90965 0.30527,1.36092 0.11482,0.49938 0.12814,1.01449 0.14118,1.52455 0.007,0.45589 0.004,0.91186 0.002,1.36779 l -0.10271,0.0344 0.10313,0.16227 c -0.003,0.46237 -9.4e-4,0.92466 0,1.38705 -0.0514,0.62347 0.0594,1.22 0.18702,1.82615 0.0934,0.44844 0.18051,0.89695 0.25623,1.34762 l -0.3117,-0.26402 -0.11734,-0.35203 -0.35203,-0.11735 -0.11735,-0.35203 -0.35203,-0.11734 -1.29078,-1.76016 -0.70406,0.46938 -0.46938,-0.93875 -0.35203,0.11734 0.23469,0.70406 0.23469,1.40813 0.8214,1.52547 0.35203,-0.58672 -0.46937,-0.93875 0.35203,0.11734 0.46938,-0.23468 1.05609,0.8214 0.58672,0.82141 0.35203,0.11734 0.17647,0.21545 c 0.0216,0.15963 0.0431,0.31938 0.0601,0.47991 0.0568,0.60742 0.0653,1.21749 0.0669,1.82707 10e-4,0.15827 -9.3e-4,0.31661 -9.3e-4,0.47489 l -0.77188,-0.41575 -0.11735,-0.58672 -0.58672,0.35203 c -0.0782,0.62584 0.11735,0.97787 0.58672,1.05609 l 0.58672,0.35204 -0.35203,0.8214 -1.40813,-1.8775 -0.35203,-0.11734 -0.11734,-0.35203 -0.35203,-0.11735 -0.35204,-0.58672 -0.35203,0.11735 c -0.0313,0.81359 0.2034,1.36119 0.70407,1.64281 l -0.70407,0.46938 1.52547,1.05609 0.11735,-0.58672 -0.70407,-0.93875 0.35204,0.11734 0.8214,0.58672 0.82141,1.0561 0.65272,0.2796 c 1.8e-4,0.0592 -1.4e-4,0.11826 0,0.17741 0,0.39244 -0.001,0.7851 -0.002,1.17754 -0.74908,-0.13816 -1.20222,0.0195 -1.35495,0.47764 l -1.29078,0.58672 -0.11735,0.35203 -0.35203,-0.11735 0.11735,-0.58672 0.35203,-0.11734 -0.35203,-0.82141 -0.93875,-0.23468 -0.35204,0.11734 -0.11734,-0.58672 -0.58672,0.35203 -0.35203,1.99485 c 0.0156,-0.87616 -0.29727,-1.42378 -0.93875,-1.64282 -0.50067,-0.35984 -1.28296,-0.43809 -2.34688,-0.23468 l -2.11219,1.40812 -0.35203,-0.58672 0.23469,-0.46937 -0.58672,-0.11735 -0.70406,1.64282 c -0.70407,0.15646 -1.13433,0.0391 -1.29078,-0.35203 l -0.11735,-0.35204 -0.82141,-0.35203 -0.8214,-1.29078 -0.82141,-0.35203 c -0.86052,-0.5476 -1.25167,-1.56459 -1.17344,-3.05094 l 0.46938,0.23469 c -0.18775,1.14215 0.008,1.88531 0.58672,2.22953 l 1.8775,1.40813 0.46937,-0.23469 1.17344,0.46937 -0.46937,-0.70406 -0.35203,-0.11734 -0.11735,-0.35203 -0.35203,-0.11735 -0.11734,-0.58672 -0.58672,0.11735 0.70406,0.93875 -0.35203,-0.11735 -0.35203,-0.11734 -0.11735,-0.35203 -1.52547,-1.0561 0.11735,-0.58672 0.8214,0.58672 0.35204,0.58672 0.35203,-0.11734 -0.11735,-0.58672 -1.29078,-1.05609 -0.35203,-1.29079 -0.46938,0.23469 -1.05609,-0.58672 0.23469,-0.93875 c -0.34421,-0.18775 -0.42244,-0.65712 -0.23469,-1.40813 l 0.93875,-0.46937 0.23469,-0.46938 -0.46938,-1.17343 0.46938,0.23468 0.46937,0.93875 -0.46937,0.23469 0.35203,0.58672 c 0.59454,-0.10953 0.94657,0.008 1.05609,0.35203 l 0.35204,0.58672 0.35203,-0.11734 -2.58157,-3.98969 0.35203,-0.11735 0.58672,0.35204 0.58672,1.05609 0.58672,-0.35203 -0.82141,-1.29078 -0.35203,-0.11735 -0.35203,-0.8214 -0.35203,-0.11735 -0.23469,-1.8775 0.35203,-0.11734 2.11219,3.28562 1.17344,0.23469 0.93875,0.70406 0.11735,-0.35203 -1.17344,-0.93875 -0.11735,-0.35203 -0.93875,-0.23469 -0.8214,-0.8214 -0.70407,-1.64282 0.35203,0.11735 1.29079,1.05609 0.58672,0.82141 0.35203,-0.11735 -0.46938,-0.70406 0.46938,-0.23469 -0.35203,-0.58672 -0.35204,-0.11734 -0.70406,-0.93875 0.35203,-0.11734 0.93875,0.46937 -0.23468,-0.46937 -0.35204,-0.11735 -2.22953,-4.34172 -0.58672,0.11734 0.70407,0.93876 -0.35204,0.11734 -0.8214,-0.58672 0.35203,-2.22953 1.8775,3.28562 0.35203,-0.11734 -0.70406,-1.64281 1.76016,1.52547 0.35203,-0.11735 -1.99485,-2.22953 -0.46937,0.23469 -0.93875,-1.64282 c -0.39115,-0.15646 -0.50849,-0.58671 -0.35203,-1.29078 l -0.23469,-1.8775 v -4.45906 c 0.28162,-1.04828 0.16428,-1.71322 -0.35203,-1.99485 l -0.35203,0.11734 -0.46938,-0.93875 v -0.46937 l -0.23469,-0.46938 0.70407,0.46938 c 0.0469,0.751 0.32074,1.2595 0.8214,1.52547 l 0.35203,-0.11735 -0.70406,-1.8775 0.46938,-0.23468 2.34687,3.755 -0.23469,0.70406 1.52547,1.76016 0.58672,-0.11735 -1.40812,-1.8775 -0.46938,-1.17344 0.35203,-0.11734 c 0.35986,0.82922 0.71189,0.94657 1.0561,0.35203 l -0.46938,-0.23469 -0.11734,-0.35203 -0.70406,-0.23468 -0.35204,0.11734 -1.99484,-3.16828 -0.58672,-0.11735 c -0.26598,-0.97003 -0.18775,-1.59587 0.23469,-1.8775 -0.39115,-0.23469 -0.46938,-0.78228 -0.23469,-1.64281 h 0.23469 l 1.76015,4.81109 0.35204,-0.11734 -0.46938,-0.93875 0.35203,-0.11734 1.52547,1.76015 -0.70406,0.23469 1.76016,2.46422 0.35203,-0.11734 -1.17344,-2.34688 h 0.23468 l 0.11734,0.35203 0.70407,0.23469 0.11734,-0.58672 -0.23469,-0.46937 v -0.46938 l -0.58672,-1.29078 -1.05609,-1.76016 0.23469,-0.70406 -0.23469,-0.46938 h 0.23469 l 0.11734,0.35203 0.35203,-0.11734 -0.23469,-1.17344 -0.8214,-1.99484 z m 16.13982,42.19473 c -1.8e-4,0.16411 8e-5,0.32818 0,0.4923 l -1.00247,-0.0912 z m -22.71109,101.90356 c 0.31292,0.46937 0.93875,0.62584 1.8775,0.46937 1.06392,-0.26597 1.72887,-0.14862 1.99485,0.35204 l -0.82141,1.52547 -0.46938,-0.23469 -0.11734,1.52547 -0.23469,0.93875 c 0.46938,0.15646 0.62584,0.62584 0.46938,1.40812 l -0.23469,0.93876 0.46938,-0.23469 0.11734,-0.35203 0.11734,1.29078 -0.35203,-0.11735 c -0.18775,-0.34421 -0.38332,-0.30509 -0.58672,0.11735 l 0.11735,0.58672 0.8214,0.35203 -0.11734,1.29078 -0.46938,-0.23469 -0.11734,0.35203 0.35203,0.82141 0.58672,0.11735 -0.23469,1.8775 0.46938,1.17343 -0.46938,0.93876 0.23469,0.46937 v 0.46938 l 0.11735,1.29078 0.58671,0.35203 -0.11734,0.35203 -0.46937,-0.23469 -0.35204,5.74985 0.46938,2.58157 c -0.34421,0.2034 -0.42244,0.67277 -0.23469,1.40812 0.67277,0.35985 0.63366,0.71188 -0.11734,1.0561 l -0.35203,-0.11735 -0.11735,-0.35203 -0.35203,0.11734 0.11734,0.58672 0.82141,0.58672 -0.23469,0.93875 c 0.42244,0.35985 0.5789,0.98569 0.46938,1.8775 v 0.46938 1.40813 l 0.23469,0.70406 -0.23469,0.93875 0.23469,1.17344 -0.35204,1.76015 -0.35203,-3.63765 0.23469,-0.93875 -0.23469,-0.70407 v -1.64281 l -0.23468,-0.70406 v -0.46938 l -0.11735,-1.05609 -0.35203,0.11734 0.46938,4.69375 -0.23469,0.70407 v 1.40812 l 0.23469,0.93875 0.35203,3.40297 0.46937,-0.93875 0.58672,5.98454 -0.23469,0.70406 0.70407,1.40813 -1.40813,0.70406 0.23469,2.11219 -0.11735,0.35203 0.58672,0.35203 -0.23468,0.93875 c -0.39115,0.23469 -0.46938,0.78229 -0.23469,1.64282 l 0.58672,0.11734 0.35203,-0.11734 -0.23469,0.46937 0.46938,1.40813 -0.46938,0.23468 -0.11734,1.76016 -0.11735,-1.29078 -0.23468,-0.93875 0.23468,-0.46938 c -0.23468,-0.46937 -0.46937,-0.46937 -0.70406,0 l 0.23469,0.46938 v 0.46937 l 0.11734,5.74985 0.35203,3.40297 0.23469,2.58157 c -0.18775,0.90746 -0.0313,1.45506 0.46938,1.64281 l -0.46938,0.93875 v 1.64282 l 0.23469,1.17343 v 1.64282 l 0.23469,0.70406 0.23469,1.17344 c -0.54761,0.23469 -0.62584,0.46937 -0.23469,0.70406 l 0.46937,1.40813 -0.46937,0.23469 0.23469,2.34687 v 0.46938 l 0.23468,0.46937 -0.46937,0.23469 c 0.62583,0.15647 0.86052,0.70406 0.70406,1.64281 l -0.46937,0.70407 0.46937,0.93875 c -0.46937,0.15646 -0.62583,0.62584 -0.46937,1.40812 l 0.46937,0.70407 -0.23469,0.93875 0.35203,0.11734 0.46938,-0.23469 0.82141,1.29079 -0.35204,0.11734 -0.46937,-0.93875 -0.58672,0.11734 0.35203,1.29078 1.40813,-0.23468 0.35203,0.8214 -0.35203,0.11735 -0.23469,-0.46938 -0.58672,0.11735 0.11734,0.58671 1.87751,0.93876 0.46937,-0.23469 0.11735,0.35203 -0.23469,0.46937 1.05609,1.29079 1.76016,0.8214 0.35203,0.82141 0.58672,0.35203 c 0.73535,0.59454 1.20473,1.45507 1.40813,2.58157 l 0.23468,0.93875 v 2.11219 l -1.17343,0.70406 -0.70407,1.64281 -0.23469,1.40813 c 0.12517,0.90746 -0.0704,1.49418 -0.58672,1.76016 l -2.46421,1.29078 c -0.32857,0.3755 -0.91529,0.49284 -1.76016,0.35203 -0.26598,-0.42244 -0.53978,-0.3051 -0.82141,0.35203 l -0.23469,2.11219 0.46938,0.70406 c -0.39115,0.23469 -0.31292,0.46938 0.23469,0.70407 l 0.35203,1.52546 1.05609,0.11735 0.82141,1.29078 0.35203,0.11734 -0.23469,0.46938 0.35203,0.58672 -0.70406,-0.23469 -0.70406,0.23469 -2.34688,-4.92844 -0.11734,0.82141 0.46937,0.93875 0.46938,1.40812 h -0.23469 l -0.11734,-0.35203 -0.93875,-0.46938 -0.11735,0.82141 0.46938,0.93875 -0.70407,0.23469 0.93875,2.81625 -0.46937,-0.23469 -0.58672,-1.29078 -0.35203,0.58672 0.35203,1.29078 1.29078,1.0561 -0.11734,1.05609 -0.23469,-0.70406 -0.58672,0.35203 0.46938,0.70406 0.23468,1.17344 c -0.39114,0.23469 -0.46937,0.78229 -0.23468,1.64282 l 0.11734,0.35203 -0.35203,-0.11735 -0.58672,-2.93359 -0.35203,0.11734 v 1.40813 l 0.23469,0.70406 0.70406,1.8775 -0.23469,1.17344 v 0.46938 l -0.11734,1.05609 -0.11735,3.63766 v 1.40812 l -0.23468,0.93875 -0.93875,1.64282 c 0.5476,0.46937 0.8214,1.21256 0.8214,2.22953 l 1.17344,4.45907 0.58672,-0.35203 0.23469,1.64281 -1.17344,0.46937 -0.46938,2.11219 -0.23468,1.8775 c -0.46938,0.46938 -0.62584,1.25166 -0.46938,2.34688 v 4.22438 l 0.46938,0.93875 v 0.46937 c -0.18775,0.751 -0.10953,1.22038 0.23468,1.40813 l -0.70406,2.11219 c -0.42244,0.28162 -0.50067,0.90747 -0.23469,1.8775 l 0.58672,2.46422 0.11735,1.99485 -0.35204,1.29078 -0.46937,-0.93875 -1.99484,-0.58672 c -0.26598,-0.97004 -0.18775,-1.59588 0.23468,-1.8775 -0.34421,-0.18775 -0.42243,-0.65713 -0.23468,-1.40813 0.70406,-0.5476 0.93875,-1.56459 0.70406,-3.05094 l -0.82141,-1.29078 -0.93875,-0.46938 -1.40812,-0.23468 -1.64282,1.8775 -0.82141,-0.35203 c 0.46938,-0.46938 0.70407,-1.17344 0.70407,-2.11219 l -0.35203,-0.58672 -0.70407,-0.23469 -1.17344,0.46938 -1.8775,0.93875 h -0.46937 l -0.82141,0.8214 c -0.31292,1.17344 -0.93875,2.03397 -1.8775,2.58157 l 0.58672,0.11734 h 0.46937 c 0.86053,0.15647 1.36902,-0.0391 1.52547,-0.58672 l 0.23469,-0.93875 -0.35203,-0.11734 -1.05609,0.8214 1.52547,-2.22953 1.29078,-0.58672 0.58672,-0.35203 1.64281,-0.23469 0.11734,1.0561 -0.46937,0.23469 -0.35203,-0.82141 -0.82141,0.35203 -1.17344,0.93875 0.11735,0.82141 0.8214,-0.58672 -0.23468,1.17344 0.35203,0.11734 0.46937,-1.64281 0.58672,0.35203 0.46938,1.64281 -0.23469,0.46938 0.58672,0.35203 0.46937,-0.70406 0.70407,-0.23469 0.46937,0.23469 0.46938,-0.93875 1.40812,-0.23469 0.82141,1.52547 0.23469,0.93875 -0.46938,0.23469 -0.46937,1.8775 -0.58672,1.52547 c -0.73536,-0.10953 -1.16562,0.0861 -1.29078,0.58672 l 0.23468,0.70406 c -0.97004,0.67278 -1.28296,2.00266 -0.93875,3.98969 l 0.23469,0.93875 c -0.0782,0.86053 0.11734,1.44725 0.58672,1.76016 l 0.35203,0.11734 0.11735,0.35203 2.81625,-0.23469 0.11734,0.82141 c -0.62583,0.31291 -0.78229,1.09522 -0.46937,2.34688 l 0.46937,-0.23469 0.35203,-0.82141 0.11735,1.52547 -0.35204,0.11735 -0.46937,-0.23469 -0.35203,0.82141 c 0.46937,0.15646 0.62583,0.62584 0.46937,1.40812 l -0.70406,1.17344 -0.23469,0.70406 v 1.40813 l 0.23469,0.46937 h -0.23469 l -0.11734,-0.35203 c -0.34421,0.12516 -0.46155,0.47719 -0.35203,1.0561 l 0.46937,0.23469 -0.23469,0.93875 0.58672,1.29078 0.58672,-0.35203 -0.46937,-0.93875 v -0.46938 l 0.11734,-0.35203 0.35203,0.11734 0.46938,1.40813 -0.35203,0.58672 -0.35203,0.11734 -0.23469,0.46938 c 0.59454,0.51631 0.94657,1.2595 1.05609,2.22953 l 0.35203,-0.11734 0.23469,-0.93875 c -0.10952,-0.57891 0.008,-0.93094 0.35203,-1.0561 l 0.35203,-0.11734 0.35203,-0.58672 0.58672,-0.35203 -1.8775,-0.70407 -1.40812,-3.05094 c 0.62583,-0.62584 0.93875,-1.56459 0.93875,-2.81625 l 1.05609,-2.69891 1.29078,-0.58671 -0.35203,-0.58672 -1.17344,0.46937 -0.58671,-1.05609 v -0.46938 l 0.23468,-0.70406 v -0.46938 l 0.11735,-0.58672 0.70406,0.23469 0.11734,-0.58672 -0.23468,-0.46937 0.70406,-0.46938 -0.11735,-0.35203 -0.46937,0.23469 c -0.18775,-0.34422 -0.38332,-0.3051 -0.58672,0.11734 l -0.58672,1.0561 -0.11734,-0.82141 0.58672,-1.29078 c 0.28162,0.43809 0.55542,0.32075 0.8214,-0.35203 l 0.11735,-0.35204 0.35203,-0.11734 -0.11735,-0.58672 -0.58671,0.35203 0.58671,-1.52547 0.58672,1.29079 0.46938,2.11218 0.23469,1.40813 c -0.0939,0.9544 0.14081,1.58022 0.70406,1.8775 l 0.23469,1.17344 0.46937,3.52031 -1.05609,3.16829 -0.46938,2.11219 -0.11734,2.6989 1.17344,2.81626 -0.35203,0.11734 -0.46938,-0.23469 -0.23469,1.17344 -0.35203,0.11735 0.35203,1.29078 c 0.70407,0.15646 1.13433,0.0391 1.29079,-0.35203 l -0.11735,-0.35204 -0.82141,-0.11734 0.11735,-0.35203 0.93875,-0.23469 0.23469,0.46938 1.52547,1.05609 0.58672,1.0561 1.64281,0.46937 c 0.35985,-0.42244 0.98569,-0.5789 1.8775,-0.46937 l 0.58672,1.05609 -0.35203,0.11734 -0.23469,-0.70406 -1.52547,0.35203 0.35203,0.58672 -1.17344,-0.70406 -0.23468,0.46937 -0.35203,-0.11734 -0.11735,-0.35203 -0.93875,0.23469 c -0.50066,-0.26598 -0.46155,-0.53979 0.11735,-0.82141 l -0.35204,-0.58672 -0.58672,-0.35203 -0.35203,-0.58672 -0.58672,1.05609 0.58672,0.82141 0.58672,0.35203 0.23469,0.70407 -0.35203,-0.11735 -1.8775,-0.46937 -0.11735,0.35203 0.93875,0.46937 -0.70406,0.46938 0.35203,0.58672 -0.58672,0.11734 0.58672,0.35203 0.35203,-0.11734 -0.46937,0.93875 -0.23469,0.93875 0.82141,0.35203 0.23469,-0.46937 -0.35204,-0.11735 0.11735,-0.35203 0.8214,0.11734 c -0.0782,0.62585 0.11735,0.97788 0.58672,1.0561 l 0.70407,0.23469 0.46937,-0.70407 c 0.28163,0.4381 0.55543,0.32075 0.82141,-0.35203 l -0.46938,-0.70406 0.46938,-0.23469 0.11734,-0.58672 0.58672,0.35203 -1.05609,2.69891 -0.93875,0.23469 -1.8775,-0.93875 -0.46938,0.23469 -0.46938,-0.23469 -0.58672,0.35203 -0.35203,0.58672 -0.35203,0.11734 -0.82141,1.76016 -0.58671,-1.05609 0.35203,0.11734 0.58672,-0.35203 -0.46938,-0.93875 c 0.39115,-0.23469 0.31292,-0.46938 -0.23469,-0.70406 l 0.11735,-3.40298 0.35203,2.22954 v 0.46937 l 0.11734,0.82141 0.58672,-0.35203 -0.23469,-0.93875 v -2.34688 l -0.11734,-2.22953 -0.35203,-1.99485 0.23469,-0.70406 -0.82141,-0.58672 -0.46938,0.93875 -0.35203,0.11735 0.23469,0.70406 -0.70406,0.46937 -1.0561,2.69891 -0.35203,-0.11734 0.23469,-1.17344 -1.05609,-0.11734 -1.29079,0.8214 c 0.25034,0.45372 0.79794,0.61019 1.64282,0.46938 l -0.11735,0.58672 -0.46937,0.23468 c -0.18775,-0.34421 -0.65713,-0.42243 -1.40813,-0.23468 l -0.11734,0.35203 0.23469,0.93875 c -0.39115,0.23469 -0.46938,0.78228 -0.23469,1.64281 l 0.35203,1.29078 0.11734,1.29079 v 4.22437 l -0.46937,-0.23468 -0.58672,-0.82141 -0.82141,-0.35203 -0.35203,-0.58672 -1.17344,-0.46938 -0.11734,0.35204 0.70406,0.46937 0.23469,0.93875 0.70406,0.70406 -0.70406,0.23469 -0.11734,0.35203 -0.70407,-0.23468 -0.46937,0.70406 -0.93875,-4.22438 c -0.46938,0.23469 -0.58672,0.82141 -0.35203,1.76016 l 0.46937,2.11219 c -0.10952,0.59453 0.008,0.94656 0.35203,1.05609 l 0.70406,-0.23469 c 0.71971,0.0939 1.18909,-0.0626 1.40813,-0.46937 l 0.23469,0.46937 0.70406,-0.46937 -0.11734,0.35203 0.11734,0.82141 0.58672,-0.11735 -0.11734,-0.35203 0.35203,0.11735 0.11734,0.35203 0.82141,0.35203 -0.11734,0.82141 -0.58672,0.11734 -0.35204,1.05609 -0.11734,-0.35203 c 0.35985,-0.18775 0.32074,-0.38331 -0.11734,-0.58672 l -1.0561,0.58672 0.11735,0.35203 -0.35204,-0.11734 -0.35203,-0.58672 -0.23468,0.70406 -1.64282,0.23469 -0.11734,-0.35203 0.46937,-0.23469 -0.11734,-0.35203 -1.52547,-0.11734 -0.46938,-1.40813 0.23469,-0.70406 c -0.43808,-0.26597 -0.59454,-0.81359 -0.46937,-1.64282 l -0.23469,-1.8775 -0.23469,-1.17344 0.23469,-1.17343 -0.46938,-1.40813 v -0.46937 l 0.23469,-0.93876 -0.70406,-1.40812 -0.23469,-2.34688 0.23469,-0.46937 -0.93875,-0.70407 -1.8775,-2.81625 -0.93875,-1.8775 1.40812,-1.8775 0.58672,-1.05609 0.58672,-0.35204 0.46937,-1.64281 c -0.39114,-0.23469 -0.46937,-0.78228 -0.23468,-1.64281 l 0.23468,-0.70407 v -1.40812 l -0.46937,-1.64282 0.23469,-0.70406 -0.46938,-1.8775 -0.46937,-1.64281 v -0.46938 l -0.35203,-0.82141 -1.29079,-1.05609 0.23469,-0.93875 0.82141,-1.29078 0.35203,-0.11735 0.23469,-1.8775 0.23469,-2.81625 v -0.46938 l 0.23468,-0.70406 -0.23468,-0.46937 0.23468,-0.93875 -0.23468,-0.93875 c 0.12516,-0.73535 -0.0704,-1.16563 -0.58672,-1.29079 l -1.29079,-1.05609 -0.23468,-2.11219 0.23468,-0.70406 0.11735,-1.52547 0.70406,0.46937 0.11734,-0.35203 -0.23468,-0.93875 h 0.23468 l 0.35204,0.58672 1.17343,0.23469 0.46938,-0.70407 0.35203,0.11735 0.11734,0.35203 0.58672,-0.11734 0.23469,-0.70407 -0.70406,-0.46937 -0.11735,-0.82141 -0.35203,0.11734 c 0.12517,0.90747 -0.14863,1.41595 -0.8214,1.52547 0.26598,-0.3129 0.10952,-0.62584 -0.46938,-0.93875 l -0.70406,0.23469 -0.93875,0.46938 c 0.10952,-0.97004 -0.0469,-1.6741 -0.46938,-2.11219 l -0.3039,-0.18243 c -0.0238,-0.11619 -0.0468,-0.23234 -0.0692,-0.34883 -0.0632,-0.26598 -0.12686,-0.53167 -0.16868,-0.80214 -0.0566,-0.24629 -0.10528,-0.4943 -0.15218,-0.74258 -0.0268,-0.1142 -0.0526,-0.2284 -0.0798,-0.34241 l 0.18702,-0.28052 c 0.35985,-0.18775 0.43808,-0.65713 0.23468,-1.40813 l -1.05609,-1.05609 -0.18702,-0.43638 c -0.0395,-0.31481 -0.061,-0.62985 -0.0321,-0.94929 0.013,-0.39714 0.0344,-0.79409 0.0747,-1.18949 l -0.42721,0.21775 -0.0151,-0.10681 0.23469,-0.70406 v -1.64282 -0.46937 l 0.23469,-3.05094 -0.3392,-0.47487 c 0.002,-0.0943 4.7e-4,-0.18859 0.005,-0.28282 0.0145,-0.23514 0.0436,-0.46886 0.0926,-0.69949 0.051,-0.28573 0.0597,-0.57149 0.0394,-0.86128 -0.0136,-0.19209 -0.0424,-0.38186 -0.0678,-0.57252 -0.007,-0.16153 -0.0237,-0.32187 -0.0541,-0.48083 -0.0297,-0.20061 -0.0184,-0.40274 -0.022,-0.60505 -10e-4,-0.25435 -10e-4,-0.50894 0.006,-0.7632 0.005,-0.17127 0.0135,-0.34262 0.0445,-0.51155 0.0273,-0.16529 0.0391,-0.33051 0.0367,-0.49824 0.008,-0.19432 0.0229,-0.38857 0.0573,-0.58031 0.0275,-0.16945 0.0366,-0.34051 0.0628,-0.51017 0.0336,-0.2184 0.0401,-0.43675 0.0403,-0.65776 0.0151,-0.40725 0.0433,-0.81377 0.0655,-1.22065 10e-4,-0.0425 0.004,-0.0849 0.005,-0.12744 0.0449,-0.21401 0.0971,-0.4264 0.15722,-0.6376 0.0605,-0.23706 0.13253,-0.46632 0.23836,-0.68754 0.0747,-0.19671 0.13595,-0.3965 0.17235,-0.60416 0.0393,-0.19561 0.0737,-0.39237 0.11001,-0.58854 0.0442,-0.21927 0.10965,-0.43408 0.12972,-0.65776 0.0196,-0.22385 0.0584,-0.44683 0.055,-0.67199 7e-4,-0.21713 10e-4,-0.43421 4.7e-4,-0.65135 -0.002,-0.23511 -0.003,-0.47055 -0.0147,-0.70542 -0.0152,-0.17351 -0.0512,-0.34396 -0.0656,-0.51751 -0.003,-0.2391 -0.002,-0.47844 -0.022,-0.7169 -0.0229,-0.21725 -0.0602,-0.43408 -0.055,-0.65318 7e-4,-0.21444 -9.4e-4,-0.42899 -0.0142,-0.6431 -0.0169,-0.20396 -0.0423,-0.4068 -0.0972,-0.6046 -0.0448,-0.22652 -0.11738,-0.44278 -0.22323,-0.6486 -0.0745,-0.2012 -0.13448,-0.40691 -0.1806,-0.6165 -0.0555,-0.23465 -0.10781,-0.47173 -0.11368,-0.71371 10e-4,-0.21695 -4.7e-4,-0.43399 -0.005,-0.65089 -0.007,-0.18479 -0.0154,-0.37026 -0.0559,-0.55142 -0.0323,-0.17214 -0.0387,-0.34722 -0.0747,-0.51887 -0.0457,-0.22211 -0.0909,-0.44408 -0.12788,-0.66785 -0.0475,-0.30814 -0.0703,-0.61958 -0.10176,-0.9296 -0.05,-0.39106 -0.12376,-0.77977 -0.21819,-1.16243 -0.0752,-0.24508 -0.15154,-0.49251 -0.27915,-0.71643 -0.0772,-0.11767 -0.0938,-0.2471 -0.10588,-0.38505 -0.0308,-0.15062 -0.0898,-0.28947 -0.14027,-0.43408 -0.0766,-0.19331 -0.1739,-0.37815 -0.24248,-0.5748 -0.0687,-0.18305 -0.12515,-0.37085 -0.18151,-0.55783 -0.0371,-0.14435 -0.0937,-0.28237 -0.12927,-0.42722 -0.054,-0.15614 -0.10592,-0.31326 -0.15126,-0.47212 -0.0538,-0.17769 -0.0978,-0.35802 -0.13476,-0.53997 -0.0588,-0.23443 -0.14469,-0.45983 -0.21085,-0.69214 -0.0492,-0.19069 -0.0892,-0.38388 -0.11964,-0.57846 -0.0293,-0.19003 -0.0413,-0.38334 -0.10038,-0.56792 -0.0153,-0.0528 -0.0297,-0.10575 -0.0445,-0.1586 l 0.0274,-0.055 -0.044,-0.005 c -0.0284,-0.10239 -0.0575,-0.20474 -0.0862,-0.30711 -0.0509,-0.14088 -0.10068,-0.28195 -0.15447,-0.42171 -0.069,-0.16991 -0.12338,-0.3452 -0.18748,-0.51704 -0.0704,-0.27705 -0.13385,-0.55703 -0.18381,-0.83835 l -0.2466,0.13201 c -0.0251,-0.10613 -0.0505,-0.21167 -0.0678,-0.31995 -0.0287,-0.13654 -0.0454,-0.2751 -0.0733,-0.41162 l 1.27841,-0.59669 0.23468,-0.70407 -0.23468,-0.93875 v -0.46937 c -0.0782,-0.62584 0.11734,-0.97787 0.58672,-1.0561 l 2.22953,0.82141 0.11734,0.35203 1.29078,-0.35203 0.11735,-0.35203 1.05609,-0.82141 -0.11734,-0.35203 -1.0561,0.58672 -0.11734,0.35203 -0.35203,0.11735 -0.11734,0.35203 -2.69891,-1.52547 -0.58672,-0.82141 -0.82141,0.58672 c -0.45373,0.71972 -0.61019,1.73669 -0.46937,3.05094 l 0.46937,0.70406 -0.88971,0.68022 c -0.0147,-0.0741 -0.0286,-0.14849 -0.0472,-0.22185 -0.0318,-0.16254 -0.0873,-0.31683 -0.13246,-0.47578 -0.0483,-0.17585 -0.0799,-0.3563 -0.0738,-0.5395 -0.002,-0.27895 -10e-4,-0.55809 -0.005,-0.83701 -0.006,-0.26095 -0.0144,-0.52352 -0.0697,-0.77968 -0.0617,-0.25602 -0.13942,-0.5081 -0.15494,-0.77328 -0.0401,-0.27714 -0.0937,-0.55463 -0.0843,-0.83607 -4.7e-4,-0.21451 -0.006,-0.42887 -0.0174,-0.64312 -0.005,-0.0835 -0.0146,-0.16658 -0.0225,-0.2498 l 0.0884,-0.0179 0.23469,-0.46938 -0.35203,-0.11734 -0.0138,0.009 c -0.003,-0.17676 -0.009,-0.35355 -0.0225,-0.5299 -0.0232,-0.26304 -0.0611,-0.52474 -0.077,-0.78838 -0.0188,-0.2208 -0.0547,-0.44014 -0.0596,-0.66189 -0.0109,-0.2147 -0.0313,-0.42866 -0.0559,-0.6422 -0.0223,-0.24237 -0.0212,-0.48508 -0.0183,-0.72836 7e-4,-0.20422 2.1e-4,-0.40814 9.4e-4,-0.61239 -4.7e-4,-0.19432 4.7e-4,-0.38876 0.005,-0.58303 0.008,-0.23516 0.0209,-0.47039 0.0532,-0.70362 0.0258,-0.25666 0.0185,-0.51378 0.016,-0.77144 -0.003,-0.27191 -0.008,-0.54429 -0.0302,-0.81545 -0.0215,-0.18115 -0.0631,-0.35919 -0.0619,-0.54271 -0.0223,-0.30151 -0.0558,-0.60257 -0.066,-0.90484 -2.4e-4,-0.3387 -0.001,-0.6775 4.7e-4,-1.0162 0.003,-0.28059 10e-4,-0.56097 0.002,-0.84159 0.002,-0.23781 -5e-5,-0.47541 0.002,-0.71322 1.4e-4,-0.19451 0.002,-0.38901 0,-0.58352 -0.002,-0.28327 -0.005,-0.56699 -0.004,-0.85028 7e-4,-0.2896 0.006,-0.57918 -0.006,-0.86862 -0.0104,-0.2004 -0.0367,-0.39841 -0.0866,-0.59313 -0.0249,-0.13264 -0.045,-0.26646 -0.0623,-0.40063 l 0.004,-0.002 c 1e-5,-0.10479 0,-0.0525 0,-0.15724 1e-5,-0.15677 -10e-6,-0.31352 0,-0.47029 1e-5,-0.15778 -2.2e-4,-0.31568 -4.7e-4,-0.47348 -4.7e-4,-0.18916 -0.001,-0.37832 -0.003,-0.56748 -0.002,-0.2739 -0.002,-0.54795 -4.7e-4,-0.82188 0.001,-0.20361 0.005,-0.40687 0.003,-0.61054 -4.7e-4,-0.19049 2.3e-4,-0.38108 0,-0.5716 2.3e-4,-0.18815 2.3e-4,-0.37653 -0.001,-0.56471 -10e-4,-0.23194 -10e-4,-0.46388 0.001,-0.69582 2.3e-4,-0.19005 7e-4,-0.38017 -9.4e-4,-0.57022 -0.001,-0.2123 4.7e-4,-0.42474 -0.0161,-0.63666 -0.0103,-0.12347 -0.0272,-0.24565 -0.0481,-0.36717 0.0111,-0.2127 0.0281,-0.42495 0.0633,-0.6353 0.0393,-0.23535 0.0803,-0.47147 0.0931,-0.71003 0.0202,-0.23557 0.0565,-0.46946 0.1288,-0.69535 0.0562,-0.2108 0.0998,-0.42711 0.0564,-0.64495 -0.0463,-0.26489 -0.11731,-0.52326 -0.18472,-0.78334 l -0.34241,0.18426 c 0.004,-0.0325 0.005,-0.0652 0.01,-0.0976 l -0.3094,0.15264 c -1.3e-4,-0.0434 -2.3e-4,-0.0868 -4.7e-4,-0.13018 -7e-4,-0.20019 -4e-5,-0.40029 0,-0.60048 9.4e-4,-0.19488 -4.7e-4,-0.38951 -4.7e-4,-0.58442 -10e-4,-0.22762 -0.002,-0.45534 4.7e-4,-0.68298 10e-4,-0.17952 10e-4,-0.35905 9.4e-4,-0.53859 -4.7e-4,-0.18829 -0.001,-0.37688 -0.001,-0.56517 7e-4,-0.2078 2.3e-4,-0.41561 -9.4e-4,-0.6234 -10e-4,-0.24633 9.4e-4,-0.49257 -9.4e-4,-0.73889 -0.002,-0.3184 -0.004,-0.63685 -9.4e-4,-0.95525 10e-4,-0.29916 -4.7e-4,-0.59808 -0.0119,-0.89705 -0.0114,-0.20101 -0.034,-0.40047 -0.10405,-0.59085 -0.0465,-0.15076 -0.0395,-0.30561 -0.0376,-0.46203 -1.2e-4,-0.18707 7.1e-4,-0.37397 -4.7e-4,-0.56104 -2.3e-4,-0.19219 7.1e-4,-0.38449 10e-4,-0.57665 -4.7e-4,-0.1836 -10e-4,-0.36694 -0.002,-0.55051 -4.7e-4,-0.20517 10e-4,-0.41045 10e-4,-0.61559 10e-4,-0.16083 9e-5,-0.32138 0,-0.48221 -2.3e-4,-0.1671 -7e-4,-0.33436 -4.7e-4,-0.50146 9.4e-4,-0.18211 0.003,-0.36421 0.0161,-0.54593 0.0163,-0.19836 0.0461,-0.39538 0.0628,-0.59359 10e-4,-0.16055 10e-4,-0.32075 10e-4,-0.4813 0,-0.16121 2.4e-4,-0.32241 -0.004,-0.48357 -0.006,-0.17126 -0.0157,-0.34277 -0.044,-0.51202 -0.032,-0.17308 -0.0404,-0.34542 -0.0325,-0.52162 7.1e-4,-0.19904 0.003,-0.39822 4.7e-4,-0.59726 -0.003,-0.20572 -0.007,-0.41222 -0.038,-0.61605 -0.0411,-0.21955 -0.10582,-0.43166 -0.16959,-0.64539 -0.0423,-0.15943 -0.0794,-0.31918 -0.0999,-0.48313 -0.0149,-0.14992 -0.008,-0.30157 -0.0302,-0.45105 -0.0204,-0.14006 -0.06,-0.27831 -0.0564,-0.42079 -0.004,-0.17292 -0.009,-0.34593 -0.033,-0.51749 -0.027,-0.15541 -0.0585,-0.30939 -0.0449,-0.46846 -8e-5,-0.20795 -7.1e-4,-0.41589 -0.003,-0.62384 -0.002,-0.31366 -0.006,-0.62704 0.003,-0.94061 l -0.14026,0.0715 c -0.0138,-0.11483 -0.0224,-0.23009 -0.016,-0.34699 -9e-5,-0.17704 -2.4e-4,-0.35374 4.7e-4,-0.53079 10e-4,-0.16116 4.7e-4,-0.32253 -0.006,-0.4836 -0.01,-0.17667 -0.0285,-0.35266 -0.0559,-0.52757 -0.0291,-0.24025 -0.0206,-0.48125 -0.0174,-0.72286 0.004,-0.25483 0.0119,-0.51019 0.0454,-0.76319 0.0276,-0.23785 0.0386,-0.4755 0.0316,-0.71507 9.4e-4,-0.2049 10e-4,-0.40978 0.002,-0.61467 0,-0.16923 10e-4,-0.33865 9.4e-4,-0.50788 0,-0.16224 4.7e-4,-0.32411 -10e-4,-0.48635 -0.003,-0.18103 -0.006,-0.36242 -0.0243,-0.54271 -0.02,-0.15314 -0.0579,-0.30549 -0.05,-0.46067 0.006,-0.14131 0.0139,-0.28374 0.0518,-0.42077 0.039,-0.14267 0.0622,-0.28733 0.0912,-0.43225 0.0303,-0.13964 0.0431,-0.28191 0.0729,-0.42171 0.0208,-0.14647 0.008,-0.29392 -0.0188,-0.43912 -0.0309,-0.14375 -0.0751,-0.28381 -0.1013,-0.42859 -0.0509,-0.16158 -0.12718,-0.31188 -0.19114,-0.46846 -0.05,-0.1391 -0.10017,-0.27841 -0.14302,-0.41986 -0.0454,-0.15041 -0.0675,-0.3065 -0.0802,-0.46297 -2.3e-4,-0.17366 9.4e-4,-0.3475 9.4e-4,-0.52117 0,-0.17195 -2.1e-4,-0.34377 -9.4e-4,-0.51565 -0.001,-0.20791 -0.002,-0.41577 -0.0124,-0.6234 -0.0126,-0.25534 -0.0285,-0.51066 -0.0591,-0.76457 -0.0145,-0.2137 -0.005,-0.42823 -0.017,-0.64217 -0.0132,-0.21176 -0.0385,-0.42282 -0.10038,-0.62662 -0.0522,-0.19331 -0.0751,-0.38709 -0.094,-0.58625 -0.0243,-0.16257 -0.0415,-0.32368 -0.0312,-0.48862 4.7e-4,-0.17127 7e-4,-0.34278 0.01,-0.51385 0.0109,-0.17184 0.0318,-0.34173 0.0632,-0.51108 0.0112,-0.16792 0.002,-0.33649 0.007,-0.50467 0.003,-0.16259 0.01,-0.32579 0.0344,-0.48679 0.0302,-0.203 0.0515,-0.40519 0.0385,-0.61103 4.7e-4,-0.25262 -4.7e-4,-0.50564 0.008,-0.75814 0.009,-0.17937 0.0238,-0.35848 0.0729,-0.53217 0.0433,-0.17973 0.07,-0.36311 0.0894,-0.54685 0.011,-0.20763 0.0319,-0.41397 0.0656,-0.61927 0.0164,-0.17369 0.0158,-0.34999 0.0541,-0.52117 0.0306,-0.15635 0.0352,-0.31246 0.0289,-0.47165 -4.7e-4,-0.19475 -9.4e-4,-0.3897 -4.7e-4,-0.58445 0,-0.18929 -2.1e-4,-0.37859 -9.4e-4,-0.56792 9.4e-4,-0.22004 0.003,-0.44022 0.0138,-0.66006 0.0152,-0.29587 0.0439,-0.59049 0.0632,-0.88603 0.005,-0.22265 0.007,-0.44615 0.0394,-0.66694 0.0307,-0.20455 0.065,-0.40815 0.0752,-0.61514 0.024,-0.18409 0.0561,-0.36806 0.0458,-0.55461 -5e-5,-0.1576 -7e-4,-0.3151 0.006,-0.47259 0.009,-0.15811 0.0233,-0.31657 0.0656,-0.46985 0.0406,-0.15323 0.0591,-0.31117 0.10956,-0.46203 0.0463,-0.18162 0.0958,-0.3625 0.14209,-0.5441 0.053,-0.19944 0.10337,-0.39965 0.15631,-0.59909 0.0471,-0.14797 0.10488,-0.29089 0.15539,-0.43729 0.0232,-0.1532 0.039,-0.30746 0.0738,-0.45884 0.0218,-0.17151 0.031,-0.34499 0.0568,-0.51612 7e-4,-0.006 4.7e-4,-0.0129 9.4e-4,-0.0192 l 0.0843,-0.0394 c 0.008,-0.0188 0.0157,-0.0376 0.0234,-0.0564 0.0543,-0.12175 0.10079,-0.24632 0.16226,-0.36487 0.055,-0.14196 0.1058,-0.28676 0.12422,-0.43865 0.0274,-0.18996 0.024,-0.38172 0.0486,-0.57205 0.0312,-0.22033 0.0822,-0.43739 0.10634,-0.6587 0.0221,-0.19514 0.0253,-0.39043 0.0211,-0.58672 -9.3e-4,-0.21431 -0.003,-0.42877 -0.003,-0.64309 10e-4,-0.24011 0.002,-0.48001 0.004,-0.72011 0.001,-0.22951 0.003,-0.45983 -0.0115,-0.68893 -0.0365,-0.32216 -0.11342,-0.63697 -0.2026,-0.94837 -0.0393,-0.14039 -0.0773,-0.28104 -0.11551,-0.42171 0.0175,-0.16996 0.0141,-0.34009 0.0128,-0.51111 -0.002,-0.20981 -0.007,-0.42018 -0.0243,-0.62933 -0.005,-0.0547 -0.0115,-0.10942 -0.0179,-0.1641 l 0.0178,-0.0127 0.11735,-0.58672 0.58671,-0.35203 0.11735,-0.58672 0.58672,-0.35203 1.05609,-1.52547 0.82141,-0.11735 c -0.0782,-0.70406 0.15646,-1.09521 0.70406,-1.17343 l 1.99485,-2.9336 0.46937,-0.23469 -0.11734,0.35203 -1.17344,2.58157 -0.23469,0.46937 c 0.0782,0.62584 -0.11734,0.97788 -0.58672,1.0561 l -1.05609,0.8214 0.11734,0.35204 0.82141,-0.35204 1.29078,-0.8214 h 0.46938 l 0.58672,-0.58672 1.64281,-1.8775 -0.46938,-0.23469 -0.70406,0.70406 -1.29078,1.52547 0.35203,-0.58672 0.70406,-1.40812 -0.23468,-0.70407 1.05609,-1.52547 1.8775,0.70407 1.76016,0.35203 -0.35203,0.58672 -0.35203,0.11734 0.11734,0.58672 1.64281,-1.64281 c 0.46938,-0.0782 0.66495,-0.43026 0.58672,-1.0561 l -1.40812,-0.93875 0.35203,-0.11734 0.93875,0.46937 1.99484,-2.22953 -0.35203,-0.11734 -0.70406,0.70406 c -0.18775,0.35985 -0.38332,0.32075 -0.58672,-0.11734 l 0.23469,-0.46938 -0.46938,-0.70406 0.70407,-0.46938 c -0.0939,-0.71971 0.0626,-1.18909 0.46937,-1.40812 l -1.40812,-0.46938 0.8214,-0.11734 c 0.2034,0.35984 0.39897,0.32075 0.58672,-0.11735 l 1.0561,-1.05609 0.70406,0.46937 0.23469,-0.70406 0.58672,-0.35203 -0.70407,-0.46938 0.11735,-0.35203 0.70406,0.46938 0.58672,-0.35203 0.11734,-1.52547 0.58672,0.35203 -0.46937,2.11219 -0.70407,2.11219 0.35203,0.11734 0.70407,-1.40813 0.23469,0.70407 0.35203,-0.11735 0.23468,-0.93875 -0.35203,-0.11734 -0.35203,0.11734 0.46938,-2.11219 c -0.10953,-0.5789 0.008,-0.93093 0.35203,-1.05609 l 1.05609,0.58672 0.11735,0.35203 0.8214,-0.35203 -0.35203,-0.58672 -1.17344,-0.23469 c -0.57889,0.12516 -0.93093,0.008 -1.05609,-0.35203 z m -19.73255,19.95577 c 0.003,1.4e-4 0.006,0.002 0.009,0.002 0.0126,0.11704 0.0267,0.23424 0.0362,0.35158 0.001,0.0141 9.4e-4,0.0281 0.002,0.0422 l -0.0495,0.028 c 4.7e-4,-0.14133 1.6e-4,-0.28264 0.002,-0.42401 z m -0.002,1.17025 c 0.0192,0.0646 0.0368,0.12948 0.055,0.19434 -0.005,0.0539 -0.007,0.10796 -0.016,0.16182 -0.009,0.0457 -0.0132,0.0919 -0.0192,0.13795 -0.0144,-0.0734 -0.0235,-0.14802 -0.0188,-0.22504 -7.1e-4,-0.0897 -4.7e-4,-0.17937 -9.4e-4,-0.26907 z m 0.36807,4.15836 c -0.004,0.0511 -0.006,0.1019 -0.0119,0.15311 -0.0175,0.13797 -0.0433,0.27491 -0.0683,0.41162 -0.006,-0.0458 -0.01,-0.0918 -0.0192,-0.13706 -0.0117,-0.0508 -0.0192,-0.10214 -0.0289,-0.15311 0.0354,-0.094 0.0732,-0.187 0.12743,-0.27273 4.6e-4,0 4.6e-4,-0.002 9.3e-4,-0.002 z m -0.0504,54.55251 c 0.003,0.0138 0.006,0.0275 0.008,0.0413 -0.004,0.12361 -0.007,0.24727 -0.008,0.37083 v -0.0775 z m -0.1233,8.17647 c -0.0109,0.0487 -0.0242,0.0966 -0.0399,0.14394 l -0.016,-0.0321 z m 2.01088,20.40821 c 0.0494,0.14224 0.0945,0.28554 0.14943,0.42584 0.0465,0.12537 0.0929,0.25095 0.13843,0.37676 l -0.008,0.023 0.0614,0.15309 c 0.0351,0.12788 0.0709,0.2555 0.10864,0.38275 0.0147,0.0457 0.0257,0.0921 0.0344,0.13889 -0.0546,-0.12028 -0.11357,-0.23405 -0.18427,-0.35891 -0.11095,-0.25201 -0.1683,-0.5207 -0.22827,-0.78841 -0.0275,-0.11685 -0.0508,-0.23464 -0.072,-0.35294 z m 2.75667,21.68797 c -4.7e-4,0.0101 -8e-5,0.0202 -4.7e-4,0.0303 l -0.0192,0.009 z"/></svg>