<?xml version="1.0" encoding="UTF-8" standalone="no"?>
<!-- Created with Inkscape (http://www.inkscape.org/) -->

<svg
   xmlns:dc="http://purl.org/dc/elements/1.1/"
   xmlns:cc="http://creativecommons.org/ns#"
   xmlns:rdf="http://www.w3.org/1999/02/22-rdf-syntax-ns#"
   xmlns:svg="http://www.w3.org/2000/svg"
   xmlns="http://www.w3.org/2000/svg"
   xmlns:sodipodi="http://sodipodi.sourceforge.net/DTD/sodipodi-0.dtd"
   xmlns:inkscape="http://www.inkscape.org/namespaces/inkscape"
   width="580"
   height="580"
   viewBox="0 0 580 580"
   enable-background="new 0 0 580 580"
   xml:space="preserve"
   version="1.1"
   id="svg44"
   inkscape:version="0.92.2 (5c3e80d, 2017-08-06)"
   sodipodi:docname="gold.svg"><defs
     id="defs38" /><sodipodi:namedview
     id="base"
     pagecolor="#ffffff"
     bordercolor="#666666"
     borderopacity="1.0"
     inkscape:pageopacity="0.0"
     inkscape:pageshadow="2"
     inkscape:zoom="0.98994949"
     inkscape:cx="443.10137"
     inkscape:cy="275.39739"
     inkscape:document-units="mm"
     inkscape:current-layer="gold"
     showgrid="false"
     units="px"
     inkscape:window-width="1920"
     inkscape:window-height="1057"
     inkscape:window-x="-8"
     inkscape:window-y="-8"
     inkscape:window-maximized="1" /><metadata
     id="metadata41"><rdf:RDF><cc:Work
         rdf:about=""><dc:format>image/svg+xml</dc:format><dc:type
           rdf:resource="http://purl.org/dc/dcmitype/StillImage" /><dc:title /></cc:Work></rdf:RDF></metadata><g
     inkscape:label="Gold"
     inkscape:groupmode="layer"
     id="gold"
     transform="translate(0,-143.54165)"><path
       inkscape:connector-curvature="0"
       fill="param(fill)"
       fill-opacity="param(fill-opacity)"
       stroke="param(outline)"
       stroke-opacity="param(outline-opacity)"
       d="m 346.61918,192.20212 25.64936,1.9174 1.97302,5.75233 5.91908,-1.91739 1.97302,-5.75234 49.3257,24.92651 1.97302,5.75233 9.86512,1.91744 1.97303,9.58713 17.75725,5.7522 5.91909,9.58712 5.9191,1.91741 17.75723,32.59623 9.86516,5.75234 3.94607,11.5046 9.86517,40.26581 5.91905,1.91739 q 5.12984,18.4073 -3.94604,23.00912 l 7.89207,3.83494 1.97306,51.77039 5.91905,1.91737 -7.89211,3.83493 3.94606,7.66961 -3.94606,7.66974 7.89211,3.83482 -7.89211,3.83494 q 4.34068,36.81457 -5.91904,59.44014 l -5.91915,1.9174 -17.75721,32.59625 -5.91909,1.91742 -5.91906,17.25686 -9.86516,5.75217 -1.97303,5.75227 -5.91907,1.91752 -5.91913,13.42193 -5.91905,1.9174 -5.9191,9.58717 -5.91909,1.91743 -5.91909,9.58712 -5.91905,1.91739 -1.97302,5.75218 -13.81123,5.75232 -1.97303,5.75223 -17.75721,5.75239 -1.97303,5.75218 -21.7033,5.75233 -1.97306,5.75218 -82.86718,3.83494 -19.73027,-3.83494 h -23.67634 l -15.78424,-3.83475 -31.56842,-7.66976 -69.056,-36.43107 -1.97304,-5.75217 -9.86513,-5.75234 -7.89212,-15.33935 1.97304,-5.75233 -5.9191,-1.91744 -5.91909,-9.587 -5.91909,-1.91752 -5.919047,-32.59612 -5.919091,-1.91749 -5.919091,-32.59613 -5.91909,-1.91755 -5.91909,-36.43102 -5.919092,-1.91743 1.973019,-63.27493 5.919088,-1.91756 17.757272,-55.60519 5.919046,-1.91752 q 0,-26.84392 15.784256,-38.34844 l 41.4336,-47.93559 5.91909,-1.9174 1.973,-5.75237 13.8112,-5.7522 1.97305,-5.7523 21.70332,-5.75223 1.97301,-5.75233 33.54148,-5.75224 1.97302,-5.75232 74.97512,-3.83483 7.89209,34.51368 5.91905,1.91738 v 26.8439 q 3.15688,16.48986 -7.8921,19.17432 l 7.8921,3.83475 q 3.15688,22.24221 -13.81114,24.92669 l -19.73029,3.83478 -7.89214,-3.83478 -53.27178,24.92649 -5.91904,13.42195 -15.78427,19.17429 -5.91906,13.4219 -3.94605,19.17417 -3.94608,69.02729 5.91909,24.92664 9.86513,5.75217 q -1.97303,19.17429 13.81124,21.09169 l 9.86511,1.91743 1.97302,5.75233 23.67635,3.83483 q 5.12989,10.73749 21.70331,9.58713 l -1.97301,13.42195 -9.86516,1.91737 -1.97302,5.75236 -9.86514,-1.91752 -1.97304,-5.75221 -19.73029,7.66973 -3.94603,-7.66973 -11.83818,-3.83479 -11.83819,3.83479 -9.86511,-5.75239 -1.97303,-5.75216 -13.81119,-5.75235 -1.97306,-5.75218 -17.75727,-5.75232 -1.97302,-9.58702 -9.86512,-1.9176 -5.91909,-21.09151 -5.91908,-1.91755 -3.94605,-15.33935 -7.89214,-15.33934 v -7.66976 l 3.94607,-7.66975 -7.8921,-34.51363 3.94603,-7.6696 v -7.66973 q -5.91909,-21.09171 3.94607,-26.8439 l 13.8112,-36.43107 15.78421,-26.84401 15.78425,-23.00912 57.21781,-28.76129 1.97302,-5.75235 39.46058,-3.83478 5.91908,1.91735 1.97303,-9.58712 5.91909,-1.91739 q 7.10288,-25.6935 -5.91909,-32.59623 -8.68132,10.73768 -29.59541,9.58713 l -1.97304,13.42199 -9.86515,-1.9174 -1.97302,-9.58716 -5.91909,1.91739 -1.97301,5.75233 q -22.49251,-2.68441 -33.54148,5.75218 l -1.97303,5.75239 -13.81119,5.7522 -1.97306,5.75234 -17.75727,5.75219 -17.75723,21.09172 -9.86513,13.4219 -5.91908,21.09173 -9.86516,5.75233 -1.97301,5.75218 -5.9191,1.9174 q 3.15686,22.24224 -5.91909,32.59623 l -5.91909,1.91744 -3.946076,26.84401 q 3.156872,16.48987 -7.892062,19.17417 l 7.892062,3.83495 q 5.919091,21.09172 -3.94602,26.84389 l -3.946042,15.33934 7.892062,3.83494 5.919091,44.10081 5.91909,1.91739 -1.973015,9.58713 -9.865166,1.91743 1.973071,13.42191 11.838155,-3.83475 7.89213,11.50451 1.97301,5.75218 17.75727,40.2659 13.81119,5.75233 -1.97301,5.75218 -5.91909,1.91751 9.86513,13.422 19.73026,-3.83496 41.43361,21.09172 27.62239,15.33946 q 1.97305,11.50451 17.75726,9.58702 l 21.70331,-17.2568 1.97303,9.58718 q 24.86015,4.98536 29.59543,-9.58718 l -1.973,-5.75232 29.59541,-1.91736 5.91909,-9.58716 15.7842,3.83495 7.8921,-11.50455 17.75727,-1.91741 5.91909,-13.4221 9.86514,-1.91739 1.97302,-5.75223 9.8651,-5.75233 1.97303,-5.75218 5.91909,-1.91739 1.97302,-9.58716 21.70335,-5.75239 5.91905,-21.09152 5.91912,-1.91749 5.91904,-21.09161 5.91909,-1.91752 5.91909,-21.09153 5.9191,-1.91759 3.94603,-80.53181 -3.94603,-11.50456 -1.97303,-24.92646 -5.91907,-1.91743 q 3.15681,-27.99443 -9.86518,-40.26585 l -7.8921,-15.33946 -5.91909,-1.91743 -17.75726,-32.5962 q -22.49251,3.06791 -33.54141,-5.75227 l -1.97305,-5.7523 -5.91909,1.9174 -1.97303,5.75233 -3.94606,-30.67884 -5.91906,1.91743 -3.94607,42.1834 11.83817,3.83475 5.91909,9.58718 19.73022,3.83494 -1.97302,-5.75234 1.97302,-5.75222 13.81123,9.58705 1.97302,9.58712 5.91912,1.91738 5.91906,13.42208 13.8112,36.43107 q 11.83818,19.17411 7.89211,53.68778 l -3.94604,19.17429 v 23.00909 l -3.94607,11.50456 -9.86517,28.76144 -5.91905,1.91739 -13.81123,21.09172 -13.8112,5.75218 -1.97303,5.75233 -39.46053,11.50453 -3.94606,-7.6697 -13.81115,9.58713 -1.97306,13.42195 -9.86512,-5.75239 -1.97303,-5.75216 q -14.99504,6.51919 -11.83818,30.67872 l -5.91909,-13.42196 -5.91909,-9.587 -19.73029,3.83479 -1.97301,-9.58713 25.64937,-5.75225 q 5.12989,-10.35412 21.70332,-9.58713 l 33.54146,-13.42191 29.59543,-24.92666 1.97302,-9.58698 9.8651,-5.75237 q 18.15189,-30.2953 11.83819,-84.36664 l -5.9191,-17.25688 -5.91909,-1.91741 -3.94606,-23.00908 -13.81115,-21.09166 -5.91909,-1.91745 -5.91909,-9.58716 -5.91906,-1.91734 -5.9191,-9.58717 -15.7842,-7.66961 -7.89214,3.83479 -9.86512,-21.09166 -3.94608,-15.33942 q -9.86513,-5.7523 -3.94604,-26.84398 l 7.89212,-15.33933 5.91909,-24.92655 5.91909,-1.91739 z"
       id="path4"
       style="stroke-width:3.99407816" /><path
       inkscape:connector-curvature="0"
       fill="param(fill)"
       fill-opacity="param(fill-opacity)"
       stroke="param(outline)"
       stroke-opacity="param(outline-opacity)"
       stroke-width="param(outline-width)"
       d="m -1.5789127,386.72172 q 1.19062503,-0.26458 1.45520903,0.39687 l -0.132292,0.39688 -1.05833303,0.26458 -1.455209,0.92604 -1.5874996,1.05834 -0.1322917,0.39687 -0.6614583,0.39688 -0.79375,1.5875 q 0.1322917,1.19062 -0.79375,1.32291 l -0.2645833,1.05834 -0.396875,1.98437 -0.396875,-0.13229 0.2645833,-0.52917 -0.2645833,-0.52916 0.6614583,-2.77813 0.396875,-0.13229 0.396875,-1.45521 0.6614583,-0.39687 0.1322917,-0.39688 0.396875,-0.13229 0.396875,-0.66146 0.396875,-0.13229 q -0.1322917,-1.32292 0.9260417,-1.45521 1.3758329,-0.0794 1.8520829,-1.05833 z"
       id="path6" /><path
       inkscape:connector-curvature="0"
       fill="param(fill)"
       fill-opacity="param(fill-opacity)"
       stroke="param(outline)"
       stroke-opacity="param(outline-opacity)"
       stroke-width="param(outline-width)"
       d="m 1.3315043,388.30922 1.719792,0.13229 q -1.772709,-0.18521 -2.51354197,0.66146 -0.396875,-0.66146 -0.79375,0.26458 -0.97895803,-0.18521 -1.19062503,0.39688 l -1.322917,0.79375 -0.132291,0.39687 -0.3968753,0.13229 -0.396875,1.45521 -0.396875,0.13229 -0.396875,1.45521 -0.396875,0.13229 v 1.5875 l -0.2645833,0.79375 0.2645833,1.32292 v 0.52917 l -0.6614583,1.19062 -0.396875,-0.13229 q -0.3439583,-2.72521 0.2645833,-4.49792 l 0.9260417,-2.51354 0.396875,-0.13229 0.5291667,-1.05833 1.4552079,-1.71979 1.85208403,-0.79375 z"
       id="path8" /></g></svg>