<?xml version="1.0" encoding="UTF-8" standalone="no"?><svg xmlns:svg="http://www.w3.org/2000/svg" xmlns="http://www.w3.org/2000/svg" x="0px" y="0px" width="580" height="580" viewBox="0 0 580 580" enable-background="new 0 0 580 580" xml:space="preserve" version="1.1" ><path stroke-opacity="param(outline-opacity)" stroke="param(outline)" fill-opacity="param(fill-opacity)" fill="param(fill)" d="M 302.38235,-0.5 301.17601,4.02378 300.76471,2 299.42165,10.60237 284.73529,65.676472 271.94118,132 l -11.9853,59.04412 -10.36764,57.86764 -7.35295,53.67648 -0.66176,36.69117 -2.57353,65.51471 2.94118,26.91176 4.85294,15 11.25,19.4853 10.73529,18.38235 3.60294,11.25 3.16177,19.19118 0.80882,27.13235 -0.73529,37.35294 7.56491,-2.22513 -1.24138,-34.98075 -1.12219,-30.14305 L 279.44118,487 l -11.74202,-22.69503 -16.0521,-27.45203 -1.55704,-11.12879 -4.10473,-26.73886 0.83267,-14.4807 0.41733,-40.59283 4.33364,-44.75097 2.79872,-52.82255 12.10822,-49.57491 0.39178,-2.33686 10,-49.70588 7.94117,-44.41177 11.34536,-61.19313 2.75621,-16.69548 c 1.72602,6.0548 5.54682,20.00639 6.33961,27.594494 l -2.05882,32.205886 2.64706,73.23529 31.69117,42.42647 -0.11604,1.38184 0.41016,0.52993 -2.79354,27.84409 -1.39764,16.6412 2.43911,37.68383 -0.29383,11.21438 -11.43296,49.66453 -23.33037,-136.43699 -3.41136,371.9919 17.05882,-0.29412 c -1.38587,-51.2772 -5.26282,-84.05248 28.89706,-125.80882 l 7.5,-25.14706 1.58692,-15.50293 3.11897,-9.20295 -0.64483,-19.91499 0.20365,-1.5556 -0.35213,-3.02821 -0.39896,-12.32335 1.92756,2.99862 -2.35294,-33.08824 -1.47059,-39.41176 -5.14706,-41.47059 -7.35294,-52.94118 -4.85294,-22.79411 -9.85294,-48.38236 -10,-56.17647 -13.95307,-68.6489 z" /></svg>