<?xml version="1.0" encoding="UTF-8" standalone="no"?><svg xmlns:svg="http://www.w3.org/2000/svg" xmlns="http://www.w3.org/2000/svg" x="0px" y="0px" width="580px" height="580px" viewBox="0 0 580 580" enable-background="new 0 0 580 580" xml:space="preserve" version="1.1" ><path fill="param(fill)" fill-opacity="param(fill-opacity)" stroke="param(outline)" stroke-opacity="param(outline-opacity)" d="m 378.75328,165 -0.63859,1.92841 c -4.59783,-0.77136 -7.5779,0.0857 -8.94023,2.57121 l -12.13317,5.78522 -1.91576,3.21402 -3.19294,0.6428 -0.63859,3.21402 -3.19294,0.6428 -0.63859,3.21401 -3.19294,1.92841 -0.63859,1.92841 -3.19294,1.92841 -2.55435,5.14242 -1.91576,4.49962 -1.27718,5.14242 -1.91576,0.6428 -1.91577,10.92765 -1.91576,0.6428 -1.91577,10.92765 -1.91576,0.6428 -1.91576,8.35644 -1.91577,0.6428 -1.91576,7.07083 -1.91577,0.64281 -2.55435,8.99924 -7.02447,13.49885 -1.91576,0.64281 c -2.12863,0.85707 -2.76722,3.21401 -1.91576,7.07083 l -1.91577,0.6428 -1.91576,3.21401 -1.91577,0.64281 -1.91576,4.49962 -3.19294,0.6428 -5.74729,10.92765 -1.91577,0.6428 -0.63858,1.92841 -1.91577,0.6428 -1.91576,3.21401 -3.19294,1.92841 -0.63859,1.92841 -3.19294,1.92841 -0.63859,1.92841 -3.19294,1.92841 -1.91576,3.21401 -9.57882,4.49962 -0.63859,1.92841 -4.47012,1.92841 -10.2174,2.57121 -10.21741,1.2856 c -1.27718,2.99975 -2.55435,3.42829 -3.83153,1.28561 l -2.55435,1.2856 -6.38588,-1.2856 h -2.55435 l -5.10871,1.2856 c -1.44746,2.39981 -4.85327,2.82834 -10.21741,1.28561 h -14.04893 l -5.10871,1.28561 -61.30444,-1.28561 -1.27718,-2.57121 -0.63859,1.92841 -3.19294,0.6428 -5.1087,-7.71363 -5.10871,2.57121 -2.55435,-1.28561 -2.55435,1.28561 -2.55435,-1.28561 c -1.7029,3.42829 -3.405807,3.42829 -5.108704,0 l -7.663056,2.57121 -1.915764,-3.21401 -9.57882,-4.49962 -1.915764,-3.21401 -8.940232,-2.57121 c -1.021741,-2.31409 -3.788956,-2.9569 -8.301644,-1.92841 l -1.915764,3.21401 -3.19294,0.6428 -0.638588,1.92841 -1.915764,0.6428 -0.638588,3.21402 -3.19294,1.92841 -1.915764,3.21401 -1.915764,0.6428 -1.915764,3.21402 -1.915764,0.6428 c -2.298917,4.54247 -2.937505,10.75624 -1.915764,18.64128 L 32,353.34122 l 1.915764,0.6428 0.638588,7.07083 c -0.51087,3.94253 0.340581,6.51374 2.554352,7.71363 l -1.277176,3.85682 1.915764,0.6428 0.638588,3.21402 c 2.809787,4.8853 7.279903,8.09931 13.410348,9.64204 l 5.108704,1.2856 h 8.940232 l 0.638588,-1.9284 7.024468,-1.92841 0.638588,-1.92841 5.747292,-1.92841 1.915764,-5.78522 3.19294,-0.64281 0.638588,1.92841 c 0.681156,1.97126 2.59692,2.61406 5.747292,1.92841 l 2.554352,-3.85682 c 0.681156,2.3998 2.809784,3.25687 6.385884,2.57121 l 0.63858,-1.9284 3.19294,-0.64281 3.83153,6.42803 0.63859,-1.92841 1.91576,-0.6428 1.91577,-7.07083 31.29081,-0.6428 0.63859,1.9284 19.79623,1.92841 c 4.68298,-1.2856 7.66305,-0.85707 8.94023,1.28561 l 3.83152,1.2856 20.43482,1.28561 0.63859,1.92841 15.9647,1.92841 0.63859,1.92841 -3.19294,1.9284 -0.63859,1.92841 1.91576,0.6428 0.63859,3.21402 4.47012,1.92841 c 4.68298,1.2856 7.66305,0.85707 8.94023,-1.28561 l 6.38588,1.28561 0.63859,1.92841 8.30164,1.9284 h 16.60329 l 6.38588,-1.2856 2.55435,1.2856 h 2.55435 c 5.36414,1.54273 8.76995,1.1142 10.21741,-1.2856 h 14.04894 l 6.38588,1.2856 c 4.68298,-2.14268 11.06886,-2.57121 19.15764,-1.2856 l 0.63858,-1.92841 49.17128,-0.6428 1.27718,2.57121 c 4.68298,1.2856 7.66305,0.85707 8.94023,-1.28561 l 5.1087,-1.2856 0.63859,1.92841 27.45928,0.6428 0.63859,-1.92841 10.856,-0.6428 7.66305,-1.28561 3.83153,-2.57121 0.63859,1.92841 3.19294,0.6428 0.63859,-1.92841 15.9647,-1.92841 0.63858,-1.9284 10.856,-1.92841 0.63859,-1.92841 14.68752,-1.92841 0.63859,-1.92841 7.02447,-1.92841 0.63859,-1.9284 10.85599,-5.78523 0.63859,-1.92841 1.91576,-0.6428 1.91577,-3.21401 3.19294,-0.64281 0.63859,-3.21401 3.19294,-0.6428 4.47011,-4.49962 1.27718,-3.85682 1.91576,-0.6428 1.91577,-3.21402 1.91576,-0.6428 5.74729,-10.92765 1.91577,-0.6428 1.91576,-7.07083 1.91576,-0.6428 1.91577,-4.49962 v -23.1409 l -1.27718,-12.85606 c 0.68116,-3.59969 -0.17028,-5.74237 -2.55435,-6.42803 l 6.38588,-11.57045 -1.91576,-0.6428 -1.91577,-4.49962 v -7.71363 l -3.83153,-1.28561 1.27718,-6.42803 -1.27718,-2.57121 -1.91576,-0.6428 c -2.72464,-1.45702 -3.36323,-5.09957 -1.91576,-10.92765 l -3.83153,-1.2856 1.27717,-6.42803 c -1.02174,-2.31409 -3.78896,-2.95689 -8.30164,-1.92841 l -0.63859,-1.92841 -1.91576,-0.6428 -1.91577,-7.07083 -1.91576,-0.6428 -1.91576,-7.07083 -1.91577,-0.64281 -5.74729,-12.21325 -1.91576,-0.6428 -1.91577,-4.49962 -7.02447,-4.49962 -0.63858,-1.92841 -13.41035,-7.07083 -11.49459,-2.57121 -24.26634,1.2856 -0.63859,1.92841 -10.85599,4.49962 -0.63859,3.21402 -3.19294,0.6428 -1.91576,10.92765 -1.91577,0.6428 -1.27717,3.85681 -5.7473,-13.49885 -1.91576,-0.64281 -1.91576,-3.21401 -1.91577,-0.6428 -1.91576,-3.21402 -5.74729,-1.92841 -0.63859,-1.9284 -7.02447,-1.92841 -0.63859,-1.92841 z m 81.73926,26.99772 8.30165,0.6428 0.63859,1.92841 7.02446,1.92841 1.91577,3.21401 1.91576,0.6428 1.91577,3.21402 1.91576,0.6428 -1.27718,10.28484 -4.47011,5.78523 -1.91577,0.6428 -0.63858,1.92841 -8.30165,1.92841 -0.63859,1.92841 -5.74729,-0.64281 -0.63859,-1.9284 -4.47011,-1.92841 -0.63859,-1.92841 -3.19294,-1.92841 -1.27718,-3.85682 -1.27717,-3.85681 v -10.28485 l 10.21741,-6.42802 z m -77.90773,2.57121 14.68752,1.92841 1.91577,3.21401 1.91576,0.6428 -1.27717,2.57121 2.55435,5.14243 -1.91577,4.49962 -1.91576,0.6428 -1.91576,3.21401 -3.19294,0.64281 -0.63859,1.9284 -10.21741,1.28561 -4.47012,-1.92841 -1.91576,-3.21401 -1.91576,-0.64281 -1.27718,-7.71363 5.74729,-10.92765 z m 39.59246,25.71211 3.19294,1.92841 2.55435,11.57045 1.91576,5.78522 1.91577,5.78523 3.19294,13.49886 1.91576,0.6428 1.27718,14.14166 c -1.27718,3.85682 -4.25725,5.9995 -8.94024,6.42803 l -0.63858,1.92841 c -4.00182,0.68565 -6.34332,-0.38568 -7.02447,-3.21402 l -2.55435,-14.14166 -1.27718,-3.85681 v -8.99924 l 2.55435,-1.28561 -0.63859,-3.21401 -1.91576,-0.64281 0.63859,-3.21401 1.91576,-0.6428 0.63859,-14.78447 z m 70.24467,7.71363 3.19294,0.64281 c 1.10689,4.11393 0.68116,6.68514 -1.27717,7.71363 l -1.27718,3.85682 2.55435,3.85681 1.91577,7.07083 1.91576,0.64281 -0.63859,1.9284 -1.91576,0.64281 0.63859,4.49962 1.91576,0.6428 1.91577,3.21401 1.91576,0.64281 -0.63859,3.21401 -1.91576,0.6428 0.63859,3.21402 1.91576,0.6428 1.91576,3.21401 1.91577,0.64281 -2.55435,3.85681 3.19294,5.78523 7.02446,1.92841 1.27718,21.85529 -1.27718,5.14242 -0.63858,8.35644 -1.91577,0.6428 -2.55435,8.99924 -3.19294,5.78523 -3.19294,0.6428 -0.63859,3.21401 -3.19294,0.64281 -0.63859,3.21401 -3.19294,0.6428 -0.63858,3.21402 -10.856,4.49962 -0.63859,3.21401 -18.51905,5.78523 -0.63859,1.9284 -18.51905,1.92841 -0.63859,1.92841 h -7.66305 l -3.83153,1.28561 -2.55435,-1.28561 -3.83153,1.28561 h -7.66306 -19.15764 l -8.94023,1.2856 -1.91576,-0.6428 -0.63859,1.92841 -14.68752,0.6428 -7.66306,1.28561 -0.63859,1.9284 -3.19294,-1.9284 -0.63859,1.9284 -19.79622,0.64281 -17.88047,1.2856 -0.63859,1.92841 -1.27717,-2.57121 -8.94023,-1.28561 h -15.32612 -2.55435 l -6.38588,1.28561 -1.27717,-2.57121 -1.27718,2.57121 -13.41035,0.6428 -0.63859,1.92841 h -16.60328 l -8.94024,1.28561 -5.1087,-1.28561 -5.1087,1.28561 -0.63859,-18.64128 15.9647,-8.35644 6.38588,-1.28561 5.1087,-2.57121 1.91577,0.64281 0.63858,-1.92841 10.856,-5.78523 0.63859,-1.92841 c 3.40581,0.42853 5.32157,-0.6428 5.74729,-3.21401 l 8.94023,-6.42803 0.63859,-1.92841 3.19294,-1.9284 0.63859,-1.92841 3.19294,-1.92841 0.63859,-1.92841 3.19294,-0.6428 0.63858,-3.21402 3.19294,-0.6428 0.63859,-3.21401 3.19294,-0.64281 1.91577,-4.49962 1.91576,-0.6428 1.91576,-3.21401 1.91577,-0.64281 5.74729,-10.92764 1.91576,-0.64281 5.7473,-10.92764 1.91576,-0.64281 1.91576,-8.35643 c 2.72464,-1.97126 4.00182,-5.39955 3.83153,-10.28485 l 1.91577,-0.6428 1.91576,-7.07083 1.91576,-0.6428 1.91577,-7.07083 1.91576,-0.64281 4.47012,-14.78446 4.47011,0.6428 1.91577,3.21402 1.91576,0.6428 1.91577,3.21401 5.1087,2.57121 20.43482,1.28561 4.47011,-1.92841 0.63859,-1.92841 3.19294,0.64281 -1.91576,14.78446 -1.91577,0.6428 -1.27717,24.42651 5.74729,9.64204 3.19294,1.92841 0.63859,1.92841 10.85599,5.78522 0.63859,1.92841 c 7.06704,2.31409 16.00727,2.74262 26.8207,1.28561 l 10.85599,-5.78523 0.63859,-1.92841 c 4.25725,0.42853 6.59875,-1.07133 7.02447,-4.49962 l 1.91576,-4.49962 1.91576,-0.6428 1.27718,-21.85529 -1.27718,-3.85682 -0.63858,-8.35644 -1.91577,-0.6428 0.63859,-4.49962 5.74729,-0.6428 0.63859,-1.92841 12.13317,-1.92841 0.63859,-1.92841 5.74729,-1.9284 z m -403.587608,105.41966 4.470116,0.6428 0.638588,3.21402 1.915764,-0.64281 0.63859,-3.21401 4.47011,0.6428 0.63859,10.92765 1.91577,-0.6428 c -1.02174,-6.17091 0.4683,-9.81345 4.47011,-10.92765 l 1.91577,0.6428 v 21.8553 c 1.27717,5.14242 0.63858,8.35643 -1.91577,9.64204 l -1.27717,-12.85606 -1.91577,-0.6428 -3.19294,-5.78522 -1.27717,17.99847 -1.91577,0.64281 -0.63859,3.21401 -2.554348,-19.28408 -1.915764,0.6428 c 1.447461,7.45651 0.383152,12.38466 -3.19294,14.78446 l -1.915764,-5.78522 v -2.57121 l 1.277176,-2.57121 -3.831528,-7.71364 2.554352,-1.2856 c -2.554352,-0.85708 -3.405807,-3.42829 -2.554352,-7.71364 z" /></svg>