<?xml version="1.0" encoding="UTF-8" standalone="no"?>
<!-- Generator: Adobe Illustrator 16.0.0, SVG Export Plug-In . SVG Version: 6.00 Build 0)  -->

<svg
   xmlns:dc="http://purl.org/dc/elements/1.1/"
   xmlns:cc="http://creativecommons.org/ns#"
   xmlns:rdf="http://www.w3.org/1999/02/22-rdf-syntax-ns#"
   xmlns:svg="http://www.w3.org/2000/svg"
   xmlns="http://www.w3.org/2000/svg"
   xmlns:sodipodi="http://sodipodi.sourceforge.net/DTD/sodipodi-0.dtd"
   xmlns:inkscape="http://www.inkscape.org/namespaces/inkscape"
   version="1.1"
   id="svg2"
   inkscape:output_extension="org.inkscape.output.svg.inkscape"
   sodipodi:docname="sword.svg"
   inkscape:version="0.92.2 (5c3e80d, 2017-08-06)"
   sodipodi:version="0.32"
   x="0px"
   y="0px"
   width="580px"
   height="580px"
   viewBox="0 0 580 580"
   enable-background="new 0 0 580 580"
   xml:space="preserve"><metadata
     id="metadata96"><rdf:RDF><cc:Work
         rdf:about=""><dc:format>image/svg+xml</dc:format><dc:type
           rdf:resource="http://purl.org/dc/dcmitype/StillImage" /></cc:Work></rdf:RDF></metadata><sodipodi:namedview
     showgrid="false"
     inkscape:cy="400.71053"
     inkscape:cx="511.18277"
     inkscape:zoom="0.92167712"
     pagecolor="#ffffff"
     bordercolor="#666666"
     guidetolerance="10.0"
     objecttolerance="10.0"
     gridtolerance="10.0"
     borderopacity="1.0"
     id="base"
     inkscape:current-layer="svg2"
     inkscape:window-y="-8"
     inkscape:window-x="-8"
     inkscape:pageopacity="0.0"
     inkscape:pageshadow="2"
     inkscape:window-width="1920"
     inkscape:window-height="1057"
     inkscape:window-maximized="1" /><g
     id="layer3"
     transform="matrix(48.14969,0,0,48.14969,-1210.2219,-51.870914)"
     inkscape:label="Layout"
     display="none"></g><path fill="param(fill)" fill-opacity="param(fill-opacity)" stroke="param(outline)" stroke-opacity="param(outline-opacity)" stroke-width="param(outline-width)"
     id="path93"
     d="m 57.644531,74.683594 c -0.174328,0.02105 -0.32914,0.134437 -0.40039,0.304687 -0.095,0.227 -0.0098,0.488188 0.199218,0.617188 C 132.59536,122.04247 196.21303,169.0342 252.08203,216.5332 c 43.609,39.787 121.76802,114.53651 158.04102,154.98242 -2.499,3.679 -4.00672,8.31224 -4.01172,13.36524 -0.013,11.896 8.30501,21.58656 18.54101,21.60156 h 0.0254 c 4.499,0 8.62966,-1.87623 11.84766,-4.99023 24.576,28.399 48.15256,56.95153 71.47656,85.64453 0.011,0.068 0.0314,0.1417 0.0684,0.2207 0.719,1.563 8.92056,7.55469 17.97657,7.55469 5.98599,0 11.10489,-2.56405 15.21289,-7.62305 13.315,-16.399 0.1581,-36.42834 0.008,-36.65234 -5.745,-7.553 -11.60525,-15.09681 -17.53125,-22.63281 9.477,-7.745 22.74754,-22.80957 21.31055,-45.72657 -2.20502,-35.153 -24.69041,-64.75081 -51.19141,-67.38281 -2.122,-0.21 -4.27081,-0.31836 -6.38281,-0.31836 -20.921,0 -36.71496,10.42383 -44.75196,17.17383 -30.282,-33.726 -62.22812,-67.07775 -95.70312,-99.84375 -5.354,-5.24 -50.10486,-43.04355 -55.63086,-48.06055 -67.349,-51.235 -145.61945,-87.853386 -233.564454,-109.150388 -0.06,-0.0145 -0.119625,-0.01873 -0.177735,-0.01172 z M 291.38672,183.8457 c 0.37716,-0.28205 0.76937,-0.55847 1.14844,-0.83984 -0.0169,-0.0216 -0.0382,-0.0406 -0.0547,-0.0625 -0.36265,0.30229 -0.73498,0.59732 -1.09375,0.90234 z m -39.30469,32.6875 c -0.42938,0.39175 -0.84671,0.79291 -1.26758,1.19141 0.043,0.0414 0.0778,0.0803 0.11914,0.12109 0.39933,-0.45909 0.74521,-0.84847 1.14844,-1.3125 z m -36.63281,42.19532 c -0.14764,0.0431 -0.30731,0.0443 -0.45508,0.0332 -0.0401,0.0531 -0.0809,0.10522 -0.12109,0.1582 0.13537,0.0776 0.24592,0.13958 0.49414,0.2832 0.0774,-0.18872 0.10255,-0.34564 0.082,-0.4746 z M 58.943359,336.68555 c -0.02191,0.0204 -0.04452,0.0401 -0.06641,0.0605 -0.148092,0.67727 -0.28779,1.36145 -0.443359,2.02735 0.04317,-0.007 0.0857,-0.0107 0.128906,-0.0176 0.240479,-1.28382 0.27759,-1.50355 0.380859,-2.07031 z m 436.970701,19.44531 c 5.225,0 9.5756,2.27009 12.9336,6.74609 9.548,12.729 5.59256,34.05447 1.35156,48.10547 -12.067,-14.976 -24.47847,-29.9092 -37.23047,-44.7832 6.287,-4.821 14.96231,-10.06836 22.94531,-10.06836 z M 75.001953,383.57812 c -0.02215,0.031 0.146682,0.25601 0.373047,0.58399 0.0046,-0.0568 0.01131,-0.11301 0.01563,-0.16992 -0.03231,-0.10023 -0.0644,-0.20027 -0.0957,-0.30078 -0.134251,-0.0604 -0.280415,-0.13086 -0.292969,-0.11329 z m 45.695317,28.80665 c -0.0924,0.18619 -0.19089,0.38818 -0.28711,0.58203 0.0909,-0.0997 0.18055,-0.19873 0.27148,-0.29688 0.005,-0.0951 0.0103,-0.1901 0.0156,-0.28515 z M 48.8125,491.37109 c -0.531906,0.2283 -1.127246,0.27929 -1.726562,0.25586 0.03444,0.0972 0.05206,0.19375 0.09375,0.29102 0.07093,0.16548 0.169995,0.3591 0.27539,0.55469 0.359305,0.20764 0.722651,0.4047 1.091797,0.58593 0.154506,0.0145 0.305232,0.04 0.458984,0.0566 -0.113849,-0.47367 -0.218928,-1.04423 -0.193359,-1.74414 z" /></svg>